<?xml version="1.0" encoding="utf-8"?>
<!-- Generator: Adobe Illustrator 24.0.1, SVG Export Plug-In . SVG Version: 6.00 Build 0)  -->
<svg version="1.1" id="Layer_1" xmlns="http://www.w3.org/2000/svg" xmlns:xlink="http://www.w3.org/1999/xlink" x="0px" y="0px"
	 viewBox="0 0 991 458" style="enable-background:new 0 0 991 458;" xml:space="preserve">
<style type="text/css">
	.st0{fill:#4C4C4C;}
	.st1{stroke:#3F3F3F;stroke-width:2;stroke-miterlimit:10;}
	.st2{fill:#FFFFFF;}
	.st3{font-family:'MyriadPro-Regular';}
	.st4{font-size:18.3993px;}
	.st5{font-size:13px;}
	.st6{font-size:14px;}
</style>
<rect class="st0" width="991" height="458"/>
<path class="st1" d="M69.5,71h-30c-5.5,0-10-4.5-10-10V31c0-5.5,4.5-10,10-10h30c5.5,0,10,4.5,10,10v30C79.5,66.5,75,71,69.5,71z"/>
<path class="st1" d="M132.5,71h-30c-5.5,0-10-4.5-10-10V31c0-5.5,4.5-10,10-10h30c5.5,0,10,4.5,10,10v30C142.5,66.5,138,71,132.5,71
	z"/>
<path class="st1" d="M195.5,71h-30c-5.5,0-10-4.5-10-10V31c0-5.5,4.5-10,10-10h30c5.5,0,10,4.5,10,10v30C205.5,66.5,201,71,195.5,71
	z"/>
<path class="st1" d="M258.5,71h-30c-5.5,0-10-4.5-10-10V31c0-5.5,4.5-10,10-10h30c5.5,0,10,4.5,10,10v30C268.5,66.5,264,71,258.5,71
	z"/>
<path class="st1" d="M321.5,71h-30c-5.5,0-10-4.5-10-10V31c0-5.5,4.5-10,10-10h30c5.5,0,10,4.5,10,10v30C331.5,66.5,327,71,321.5,71
	z"/>
<path class="st1" d="M384.5,71h-30c-5.5,0-10-4.5-10-10V31c0-5.5,4.5-10,10-10h30c5.5,0,10,4.5,10,10v30C394.5,66.5,390,71,384.5,71
	z"/>
<path class="st1" d="M447.5,71h-30c-5.5,0-10-4.5-10-10V31c0-5.5,4.5-10,10-10h30c5.5,0,10,4.5,10,10v30C457.5,66.5,453,71,447.5,71
	z"/>
<path class="st1" d="M510.5,71h-30c-5.5,0-10-4.5-10-10V31c0-5.5,4.5-10,10-10h30c5.5,0,10,4.5,10,10v30C520.5,66.5,516,71,510.5,71
	z"/>
<path class="st1" d="M573.5,71h-30c-5.5,0-10-4.5-10-10V31c0-5.5,4.5-10,10-10h30c5.5,0,10,4.5,10,10v30C583.5,66.5,579,71,573.5,71
	z"/>
<path class="st1" d="M636.5,71h-30c-5.5,0-10-4.5-10-10V31c0-5.5,4.5-10,10-10h30c5.5,0,10,4.5,10,10v30C646.5,66.5,642,71,636.5,71
	z"/>
<path class="st1" d="M699.5,71h-30c-5.5,0-10-4.5-10-10V31c0-5.5,4.5-10,10-10h30c5.5,0,10,4.5,10,10v30C709.5,66.5,705,71,699.5,71
	z"/>
<path class="st1" d="M762.5,71h-30c-5.5,0-10-4.5-10-10V31c0-5.5,4.5-10,10-10h30c5.5,0,10,4.5,10,10v30C772.5,66.5,768,71,762.5,71
	z"/>
<path class="st1" d="M825.5,71h-30c-5.5,0-10-4.5-10-10V31c0-5.5,4.5-10,10-10h30c5.5,0,10,4.5,10,10v30C835.5,66.5,831,71,825.5,71
	z"/>
<path class="st1" d="M888.5,71h-30c-5.5,0-10-4.5-10-10V31c0-5.5,4.5-10,10-10h30c5.5,0,10,4.5,10,10v30C898.5,66.5,894,71,888.5,71
	z"/>
<path class="st1" d="M951.5,71h-30c-5.5,0-10-4.5-10-10V31c0-5.5,4.5-10,10-10h30c5.5,0,10,4.5,10,10v30C961.5,66.5,957,71,951.5,71
	z"/>
<path class="st1" d="M69.5,132h-30c-5.5,0-10-4.5-10-10V92c0-5.5,4.5-10,10-10h30c5.5,0,10,4.5,10,10v30C79.5,127.5,75,132,69.5,132
	z"/>
<path class="st1" d="M132.5,132h-30c-5.5,0-10-4.5-10-10V92c0-5.5,4.5-10,10-10h30c5.5,0,10,4.5,10,10v30
	C142.5,127.5,138,132,132.5,132z"/>
<path class="st1" d="M195.5,132h-30c-5.5,0-10-4.5-10-10V92c0-5.5,4.5-10,10-10h30c5.5,0,10,4.5,10,10v30
	C205.5,127.5,201,132,195.5,132z"/>
<path class="st1" d="M258.5,132h-30c-5.5,0-10-4.5-10-10V92c0-5.5,4.5-10,10-10h30c5.5,0,10,4.5,10,10v30
	C268.5,127.5,264,132,258.5,132z"/>
<path class="st1" d="M321.5,132h-30c-5.5,0-10-4.5-10-10V92c0-5.5,4.5-10,10-10h30c5.5,0,10,4.5,10,10v30
	C331.5,127.5,327,132,321.5,132z"/>
<path class="st1" d="M384.5,132h-30c-5.5,0-10-4.5-10-10V92c0-5.5,4.5-10,10-10h30c5.5,0,10,4.5,10,10v30
	C394.5,127.5,390,132,384.5,132z"/>
<path class="st1" d="M447.5,132h-30c-5.5,0-10-4.5-10-10V92c0-5.5,4.5-10,10-10h30c5.5,0,10,4.5,10,10v30
	C457.5,127.5,453,132,447.5,132z"/>
<path class="st1" d="M510.5,132h-30c-5.5,0-10-4.5-10-10V92c0-5.5,4.5-10,10-10h30c5.5,0,10,4.5,10,10v30
	C520.5,127.5,516,132,510.5,132z"/>
<path class="st1" d="M573.5,132h-30c-5.5,0-10-4.5-10-10V92c0-5.5,4.5-10,10-10h30c5.5,0,10,4.5,10,10v30
	C583.5,127.5,579,132,573.5,132z"/>
<path class="st1" d="M636.5,132h-30c-5.5,0-10-4.5-10-10V92c0-5.5,4.5-10,10-10h30c5.5,0,10,4.5,10,10v30
	C646.5,127.5,642,132,636.5,132z"/>
<path class="st1" d="M699.5,132h-30c-5.5,0-10-4.5-10-10V92c0-5.5,4.5-10,10-10h30c5.5,0,10,4.5,10,10v30
	C709.5,127.5,705,132,699.5,132z"/>
<path class="st1" d="M762.5,132h-30c-5.5,0-10-4.5-10-10V92c0-5.5,4.5-10,10-10h30c5.5,0,10,4.5,10,10v30
	C772.5,127.5,768,132,762.5,132z"/>
<path class="st1" d="M825.5,132h-30c-5.5,0-10-4.5-10-10V92c0-5.5,4.5-10,10-10h30c5.5,0,10,4.5,10,10v30
	C835.5,127.5,831,132,825.5,132z"/>
<path class="st1" d="M888.5,132h-30c-5.5,0-10-4.5-10-10V92c0-5.5,4.5-10,10-10h30c5.5,0,10,4.5,10,10v30
	C898.5,127.5,894,132,888.5,132z"/>
<path class="st1" d="M951.5,132h-30c-5.5,0-10-4.5-10-10V92c0-5.5,4.5-10,10-10h30c5.5,0,10,4.5,10,10v30
	C961.5,127.5,957,132,951.5,132z"/>
<path class="st1" d="M69.5,193h-30c-5.5,0-10-4.5-10-10v-30c0-5.5,4.5-10,10-10h30c5.5,0,10,4.5,10,10v30
	C79.5,188.5,75,193,69.5,193z"/>
<path class="st1" d="M132.5,193h-30c-5.5,0-10-4.5-10-10v-30c0-5.5,4.5-10,10-10h30c5.5,0,10,4.5,10,10v30
	C142.5,188.5,138,193,132.5,193z"/>
<path class="st1" d="M195.5,193h-30c-5.5,0-10-4.5-10-10v-30c0-5.5,4.5-10,10-10h30c5.5,0,10,4.5,10,10v30
	C205.5,188.5,201,193,195.5,193z"/>
<path class="st1" d="M258.5,193h-30c-5.5,0-10-4.5-10-10v-30c0-5.5,4.5-10,10-10h30c5.5,0,10,4.5,10,10v30
	C268.5,188.5,264,193,258.5,193z"/>
<path class="st1" d="M321.5,193h-30c-5.5,0-10-4.5-10-10v-30c0-5.5,4.5-10,10-10h30c5.5,0,10,4.5,10,10v30
	C331.5,188.5,327,193,321.5,193z"/>
<path class="st1" d="M384.5,193h-30c-5.5,0-10-4.5-10-10v-30c0-5.5,4.5-10,10-10h30c5.5,0,10,4.5,10,10v30
	C394.5,188.5,390,193,384.5,193z"/>
<path class="st1" d="M447.5,193h-30c-5.5,0-10-4.5-10-10v-30c0-5.5,4.5-10,10-10h30c5.5,0,10,4.5,10,10v30
	C457.5,188.5,453,193,447.5,193z"/>
<path class="st1" d="M510.5,193h-30c-5.5,0-10-4.5-10-10v-30c0-5.5,4.5-10,10-10h30c5.5,0,10,4.5,10,10v30
	C520.5,188.5,516,193,510.5,193z"/>
<path class="st1" d="M573.5,193h-30c-5.5,0-10-4.5-10-10v-30c0-5.5,4.5-10,10-10h30c5.5,0,10,4.5,10,10v30
	C583.5,188.5,579,193,573.5,193z"/>
<path class="st1" d="M636.5,193h-30c-5.5,0-10-4.5-10-10v-30c0-5.5,4.5-10,10-10h30c5.5,0,10,4.5,10,10v30
	C646.5,188.5,642,193,636.5,193z"/>
<path class="st1" d="M699.5,193h-30c-5.5,0-10-4.5-10-10v-30c0-5.5,4.5-10,10-10h30c5.5,0,10,4.5,10,10v30
	C709.5,188.5,705,193,699.5,193z"/>
<path class="st1" d="M762.5,193h-30c-5.5,0-10-4.5-10-10v-30c0-5.5,4.5-10,10-10h30c5.5,0,10,4.5,10,10v30
	C772.5,188.5,768,193,762.5,193z"/>
<path class="st1" d="M825.5,193h-30c-5.5,0-10-4.5-10-10v-30c0-5.5,4.5-10,10-10h30c5.5,0,10,4.5,10,10v30
	C835.5,188.5,831,193,825.5,193z"/>
<path class="st1" d="M888.5,193h-30c-5.5,0-10-4.5-10-10v-30c0-5.5,4.5-10,10-10h30c5.5,0,10,4.5,10,10v30
	C898.5,188.5,894,193,888.5,193z"/>
<path class="st1" d="M951.5,193h-30c-5.5,0-10-4.5-10-10v-30c0-5.5,4.5-10,10-10h30c5.5,0,10,4.5,10,10v30
	C961.5,188.5,957,193,951.5,193z"/>
<path class="st1" d="M69.5,254h-30c-5.5,0-10-4.5-10-10v-30c0-5.5,4.5-10,10-10h30c5.5,0,10,4.5,10,10v30
	C79.5,249.5,75,254,69.5,254z"/>
<path class="st1" d="M132.5,254h-30c-5.5,0-10-4.5-10-10v-30c0-5.5,4.5-10,10-10h30c5.5,0,10,4.5,10,10v30
	C142.5,249.5,138,254,132.5,254z"/>
<path class="st1" d="M195.5,254h-30c-5.5,0-10-4.5-10-10v-30c0-5.5,4.5-10,10-10h30c5.5,0,10,4.5,10,10v30
	C205.5,249.5,201,254,195.5,254z"/>
<path class="st1" d="M258.5,254h-30c-5.5,0-10-4.5-10-10v-30c0-5.5,4.5-10,10-10h30c5.5,0,10,4.5,10,10v30
	C268.5,249.5,264,254,258.5,254z"/>
<path class="st1" d="M321.5,254h-30c-5.5,0-10-4.5-10-10v-30c0-5.5,4.5-10,10-10h30c5.5,0,10,4.5,10,10v30
	C331.5,249.5,327,254,321.5,254z"/>
<path class="st1" d="M384.5,254h-30c-5.5,0-10-4.5-10-10v-30c0-5.5,4.5-10,10-10h30c5.5,0,10,4.5,10,10v30
	C394.5,249.5,390,254,384.5,254z"/>
<path class="st1" d="M447.5,254h-30c-5.5,0-10-4.5-10-10v-30c0-5.5,4.5-10,10-10h30c5.5,0,10,4.5,10,10v30
	C457.5,249.5,453,254,447.5,254z"/>
<path class="st1" d="M510.5,254h-30c-5.5,0-10-4.5-10-10v-30c0-5.5,4.5-10,10-10h30c5.5,0,10,4.5,10,10v30
	C520.5,249.5,516,254,510.5,254z"/>
<path class="st1" d="M573.5,254h-30c-5.5,0-10-4.5-10-10v-30c0-5.5,4.5-10,10-10h30c5.5,0,10,4.5,10,10v30
	C583.5,249.5,579,254,573.5,254z"/>
<path class="st1" d="M636.5,254h-30c-5.5,0-10-4.5-10-10v-30c0-5.5,4.5-10,10-10h30c5.5,0,10,4.5,10,10v30
	C646.5,249.5,642,254,636.5,254z"/>
<path class="st1" d="M699.5,254h-30c-5.5,0-10-4.5-10-10v-30c0-5.5,4.5-10,10-10h30c5.5,0,10,4.5,10,10v30
	C709.5,249.5,705,254,699.5,254z"/>
<path class="st1" d="M762.5,254h-30c-5.5,0-10-4.5-10-10v-30c0-5.5,4.5-10,10-10h30c5.5,0,10,4.5,10,10v30
	C772.5,249.5,768,254,762.5,254z"/>
<path class="st1" d="M825.5,254h-30c-5.5,0-10-4.5-10-10v-30c0-5.5,4.5-10,10-10h30c5.5,0,10,4.5,10,10v30
	C835.5,249.5,831,254,825.5,254z"/>
<path class="st1" d="M888.5,254h-30c-5.5,0-10-4.5-10-10v-30c0-5.5,4.5-10,10-10h30c5.5,0,10,4.5,10,10v30
	C898.5,249.5,894,254,888.5,254z"/>
<path class="st1" d="M951.5,254h-30c-5.5,0-10-4.5-10-10v-30c0-5.5,4.5-10,10-10h30c5.5,0,10,4.5,10,10v30
	C961.5,249.5,957,254,951.5,254z"/>
<path class="st1" d="M69.5,315h-30c-5.5,0-10-4.5-10-10v-30c0-5.5,4.5-10,10-10h30c5.5,0,10,4.5,10,10v30
	C79.5,310.5,75,315,69.5,315z"/>
<path class="st1" d="M132.5,315h-30c-5.5,0-10-4.5-10-10v-30c0-5.5,4.5-10,10-10h30c5.5,0,10,4.5,10,10v30
	C142.5,310.5,138,315,132.5,315z"/>
<path class="st1" d="M195.5,315h-30c-5.5,0-10-4.5-10-10v-30c0-5.5,4.5-10,10-10h30c5.5,0,10,4.5,10,10v30
	C205.5,310.5,201,315,195.5,315z"/>
<path class="st1" d="M258.5,315h-30c-5.5,0-10-4.5-10-10v-30c0-5.5,4.5-10,10-10h30c5.5,0,10,4.5,10,10v30
	C268.5,310.5,264,315,258.5,315z"/>
<path class="st1" d="M321.5,315h-30c-5.5,0-10-4.5-10-10v-30c0-5.5,4.5-10,10-10h30c5.5,0,10,4.5,10,10v30
	C331.5,310.5,327,315,321.5,315z"/>
<path class="st1" d="M384.5,315h-30c-5.5,0-10-4.5-10-10v-30c0-5.5,4.5-10,10-10h30c5.5,0,10,4.5,10,10v30
	C394.5,310.5,390,315,384.5,315z"/>
<path class="st1" d="M447.5,315h-30c-5.5,0-10-4.5-10-10v-30c0-5.5,4.5-10,10-10h30c5.5,0,10,4.5,10,10v30
	C457.5,310.5,453,315,447.5,315z"/>
<path class="st1" d="M510.5,315h-30c-5.5,0-10-4.5-10-10v-30c0-5.5,4.5-10,10-10h30c5.5,0,10,4.5,10,10v30
	C520.5,310.5,516,315,510.5,315z"/>
<path class="st1" d="M573.5,315h-30c-5.5,0-10-4.5-10-10v-30c0-5.5,4.5-10,10-10h30c5.5,0,10,4.5,10,10v30
	C583.5,310.5,579,315,573.5,315z"/>
<path class="st1" d="M636.5,315h-30c-5.5,0-10-4.5-10-10v-30c0-5.5,4.5-10,10-10h30c5.5,0,10,4.5,10,10v30
	C646.5,310.5,642,315,636.5,315z"/>
<path class="st1" d="M699.5,315h-30c-5.5,0-10-4.5-10-10v-30c0-5.5,4.5-10,10-10h30c5.5,0,10,4.5,10,10v30
	C709.5,310.5,705,315,699.5,315z"/>
<path class="st1" d="M762.5,315h-30c-5.5,0-10-4.5-10-10v-30c0-5.5,4.5-10,10-10h30c5.5,0,10,4.5,10,10v30
	C772.5,310.5,768,315,762.5,315z"/>
<path class="st1" d="M825.5,315h-30c-5.5,0-10-4.5-10-10v-30c0-5.5,4.5-10,10-10h30c5.5,0,10,4.5,10,10v30
	C835.5,310.5,831,315,825.5,315z"/>
<path class="st1" d="M888.5,315h-30c-5.5,0-10-4.5-10-10v-30c0-5.5,4.5-10,10-10h30c5.5,0,10,4.5,10,10v30
	C898.5,310.5,894,315,888.5,315z"/>
<path class="st1" d="M951.5,315h-30c-5.5,0-10-4.5-10-10v-30c0-5.5,4.5-10,10-10h30c5.5,0,10,4.5,10,10v30
	C961.5,310.5,957,315,951.5,315z"/>
<path class="st1" d="M69.5,376h-30c-5.5,0-10-4.5-10-10v-30c0-5.5,4.5-10,10-10h30c5.5,0,10,4.5,10,10v30
	C79.5,371.5,75,376,69.5,376z"/>
<path class="st1" d="M132.5,376h-30c-5.5,0-10-4.5-10-10v-30c0-5.5,4.5-10,10-10h30c5.5,0,10,4.5,10,10v30
	C142.5,371.5,138,376,132.5,376z"/>
<path class="st1" d="M195.5,376h-30c-5.5,0-10-4.5-10-10v-30c0-5.5,4.5-10,10-10h30c5.5,0,10,4.5,10,10v30
	C205.5,371.5,201,376,195.5,376z"/>
<path class="st1" d="M258.5,376h-30c-5.5,0-10-4.5-10-10v-30c0-5.5,4.5-10,10-10h30c5.5,0,10,4.5,10,10v30
	C268.5,371.5,264,376,258.5,376z"/>
<path class="st1" d="M321.5,376h-30c-5.5,0-10-4.5-10-10v-30c0-5.5,4.5-10,10-10h30c5.5,0,10,4.5,10,10v30
	C331.5,371.5,327,376,321.5,376z"/>
<path class="st1" d="M384.5,376h-30c-5.5,0-10-4.5-10-10v-30c0-5.5,4.5-10,10-10h30c5.5,0,10,4.5,10,10v30
	C394.5,371.5,390,376,384.5,376z"/>
<path class="st1" d="M447.5,376h-30c-5.5,0-10-4.5-10-10v-30c0-5.5,4.5-10,10-10h30c5.5,0,10,4.5,10,10v30
	C457.5,371.5,453,376,447.5,376z"/>
<path class="st1" d="M510.5,376h-30c-5.5,0-10-4.5-10-10v-30c0-5.5,4.5-10,10-10h30c5.5,0,10,4.5,10,10v30
	C520.5,371.5,516,376,510.5,376z"/>
<path class="st1" d="M573.5,376h-30c-5.5,0-10-4.5-10-10v-30c0-5.5,4.5-10,10-10h30c5.5,0,10,4.5,10,10v30
	C583.5,371.5,579,376,573.5,376z"/>
<path class="st1" d="M636.5,376h-30c-5.5,0-10-4.5-10-10v-30c0-5.5,4.5-10,10-10h30c5.5,0,10,4.5,10,10v30
	C646.5,371.5,642,376,636.5,376z"/>
<path class="st1" d="M699.5,376h-30c-5.5,0-10-4.5-10-10v-30c0-5.5,4.5-10,10-10h30c5.5,0,10,4.5,10,10v30
	C709.5,371.5,705,376,699.5,376z"/>
<path class="st1" d="M762.5,376h-30c-5.5,0-10-4.5-10-10v-30c0-5.5,4.5-10,10-10h30c5.5,0,10,4.5,10,10v30
	C772.5,371.5,768,376,762.5,376z"/>
<path class="st1" d="M825.5,376h-30c-5.5,0-10-4.5-10-10v-30c0-5.5,4.5-10,10-10h30c5.5,0,10,4.5,10,10v30
	C835.5,371.5,831,376,825.5,376z"/>
<path class="st1" d="M888.5,376h-30c-5.5,0-10-4.5-10-10v-30c0-5.5,4.5-10,10-10h30c5.5,0,10,4.5,10,10v30
	C898.5,371.5,894,376,888.5,376z"/>
<path class="st1" d="M951.5,376h-30c-5.5,0-10-4.5-10-10v-30c0-5.5,4.5-10,10-10h30c5.5,0,10,4.5,10,10v30
	C961.5,371.5,957,376,951.5,376z"/>
<path class="st1" d="M69.5,437h-30c-5.5,0-10-4.5-10-10v-30c0-5.5,4.5-10,10-10h30c5.5,0,10,4.5,10,10v30
	C79.5,432.5,75,437,69.5,437z"/>
<path class="st1" d="M132.5,437h-30c-5.5,0-10-4.5-10-10v-30c0-5.5,4.5-10,10-10h30c5.5,0,10,4.5,10,10v30
	C142.5,432.5,138,437,132.5,437z"/>
<path class="st1" d="M195.5,437h-30c-5.5,0-10-4.5-10-10v-30c0-5.5,4.5-10,10-10h30c5.5,0,10,4.5,10,10v30
	C205.5,432.5,201,437,195.5,437z"/>
<path class="st1" d="M258.5,437h-30c-5.5,0-10-4.5-10-10v-30c0-5.5,4.5-10,10-10h30c5.5,0,10,4.5,10,10v30
	C268.5,432.5,264,437,258.5,437z"/>
<path class="st1" d="M321.5,437h-30c-5.5,0-10-4.5-10-10v-30c0-5.5,4.5-10,10-10h30c5.5,0,10,4.5,10,10v30
	C331.5,432.5,327,437,321.5,437z"/>
<path class="st1" d="M384.5,437h-30c-5.5,0-10-4.5-10-10v-30c0-5.5,4.5-10,10-10h30c5.5,0,10,4.5,10,10v30
	C394.5,432.5,390,437,384.5,437z"/>
<path class="st1" d="M447.5,437h-30c-5.5,0-10-4.5-10-10v-30c0-5.5,4.5-10,10-10h30c5.5,0,10,4.5,10,10v30
	C457.5,432.5,453,437,447.5,437z"/>
<path class="st1" d="M510.5,437h-30c-5.5,0-10-4.5-10-10v-30c0-5.5,4.5-10,10-10h30c5.5,0,10,4.5,10,10v30
	C520.5,432.5,516,437,510.5,437z"/>
<path class="st1" d="M573.5,437h-30c-5.5,0-10-4.5-10-10v-30c0-5.5,4.5-10,10-10h30c5.5,0,10,4.5,10,10v30
	C583.5,432.5,579,437,573.5,437z"/>
<path class="st1" d="M636.5,437h-30c-5.5,0-10-4.5-10-10v-30c0-5.5,4.5-10,10-10h30c5.5,0,10,4.5,10,10v30
	C646.5,432.5,642,437,636.5,437z"/>
<path class="st1" d="M699.5,437h-30c-5.5,0-10-4.5-10-10v-30c0-5.5,4.5-10,10-10h30c5.5,0,10,4.5,10,10v30
	C709.5,432.5,705,437,699.5,437z"/>
<path class="st1" d="M762.5,437h-30c-5.5,0-10-4.5-10-10v-30c0-5.5,4.5-10,10-10h30c5.5,0,10,4.5,10,10v30
	C772.5,432.5,768,437,762.5,437z"/>
<path class="st1" d="M825.5,437h-30c-5.5,0-10-4.5-10-10v-30c0-5.5,4.5-10,10-10h30c5.5,0,10,4.5,10,10v30
	C835.5,432.5,831,437,825.5,437z"/>
<path class="st1" d="M888.5,437h-30c-5.5,0-10-4.5-10-10v-30c0-5.5,4.5-10,10-10h30c5.5,0,10,4.5,10,10v30
	C898.5,432.5,894,437,888.5,437z"/>
<path class="st1" d="M951.5,437h-30c-5.5,0-10-4.5-10-10v-30c0-5.5,4.5-10,10-10h30c5.5,0,10,4.5,10,10v30
	C961.5,432.5,957,437,951.5,437z"/>
<text transform="matrix(1 0 0 1 49.7808 51.4004)" class="st2 st3 st4">1</text>
<text transform="matrix(1 0 0 1 870.3449 51.4004)" class="st2 st3 st4">/</text>
<text transform="matrix(1 0 0 1 806.6822 51.4004)" class="st2 st3 st4">*</text>
<text transform="matrix(1 0 0 1 744.6758 51.4004)" class="st2 st3 st4">-</text>
<text transform="matrix(1 0 0 1 679.0172 51.4004)" class="st2 st3 st4">+</text>
<text transform="matrix(1 0 0 1 490.7807 51.4004)" class="st2 st3 st4">8</text>
<text transform="matrix(1 0 0 1 427.7809 51.4004)" class="st2 st3 st4">7</text>
<text transform="matrix(1 0 0 1 364.7809 51.4004)" class="st2 st3 st4">6</text>
<text transform="matrix(1 0 0 1 301.7809 51.4004)" class="st2 st3 st4">5</text>
<text transform="matrix(1 0 0 1 238.7808 51.4004)" class="st2 st3 st4">4</text>
<text transform="matrix(1 0 0 1 175.7808 51.4004)" class="st2 st3 st4">3</text>
<text transform="matrix(1 0 0 1 112.7807 51.4004)" class="st2 st3 st4">2</text>
<text transform="matrix(1 0 0 1 929.2141 51.4004)" class="st2 st3 st4">%</text>
<text transform="matrix(1 0 0 1 616.7809 51.4006)" class="st2 st3 st4">0</text>
<text transform="matrix(1 0 0 1 553.7809 51.4006)" class="st2 st3 st4">9</text>
<text transform="matrix(1 0 0 1 48.8698 112.4003)" class="st2 st3 st4">A</text>
<text transform="matrix(1 0 0 1 930.162 112.4003)" class="st2 st3 st4">O</text>
<text transform="matrix(1 0 0 1 867.4469 112.4002)" class="st2 st3 st4">N</text>
<text transform="matrix(1 0 0 1 803.1036 112.4002)" class="st2 st3 st4">M</text>
<text transform="matrix(1 0 0 1 743.1578 112.4002)" class="st2 st3 st4">L</text>
<text transform="matrix(1 0 0 1 679.5138 112.4002)" class="st2 st3 st4">K</text>
<text transform="matrix(1 0 0 1 618.0963 112.4002)" class="st2 st3 st4">J</text>
<text transform="matrix(1 0 0 1 556.3014 112.4002)" class="st2 st3 st4">I</text>
<text transform="matrix(1 0 0 1 489.5021 112.4002)" class="st2 st3 st4">H</text>
<text transform="matrix(1 0 0 1 426.5573 112.4002)" class="st2 st3 st4">G</text>
<text transform="matrix(1 0 0 1 365.0197 112.4002)" class="st2 st3 st4">F</text>
<text transform="matrix(1 0 0 1 301.9738 112.4002)" class="st2 st3 st4">E</text>
<text transform="matrix(1 0 0 1 237.3732 112.4002)" class="st2 st3 st4">D</text>
<text transform="matrix(1 0 0 1 175.1647 112.4002)" class="st2 st3 st4">C</text>
<text transform="matrix(1 0 0 1 112.5138 112.4002)" class="st2 st3 st4">B</text>
<text transform="matrix(1 0 0 1 49.6061 173.4003)" class="st2 st3 st4">P</text>
<text transform="matrix(1 0 0 1 934.5961 173.4003)" class="st2 st3 st4">‘</text>
<text transform="matrix(1 0 0 1 870.2438 173.4002)" class="st2 st3 st4">“</text>
<text transform="matrix(1 0 0 1 808.5958 173.4002)" class="st2 st3 st4">,</text>
<text transform="matrix(1 0 0 1 745.5958 173.4002)" class="st2 st3 st4">.</text>
<text transform="matrix(1 0 0 1 679.4127 173.4002)" class="st2 st3 st4">Z</text>
<text transform="matrix(1 0 0 1 616.5231 173.4002)" class="st2 st3 st4">Y</text>
<text transform="matrix(1 0 0 1 553.2472 173.4002)" class="st2 st3 st4">X</text>
<text transform="matrix(1 0 0 1 487.7174 173.4002)" class="st2 st3 st4">W</text>
<text transform="matrix(1 0 0 1 427.3668 173.4002)" class="st2 st3 st4">V</text>
<text transform="matrix(1 0 0 1 363.548 173.4002)" class="st2 st3 st4">U</text>
<text transform="matrix(1 0 0 1 301.9279 173.4002)" class="st2 st3 st4">T</text>
<text transform="matrix(1 0 0 1 238.965 173.4002)" class="st2 st3 st4">S</text>
<text transform="matrix(1 0 0 1 175.5509 173.4002)" class="st2 st3 st4">R</text>
<text transform="matrix(1 0 0 1 111.1617 173.4002)" class="st2 st3 st4">Q</text>
<text transform="matrix(1 0 0 1 45.3005 235.4003)" class="st2 st3 st4">F1</text>
<text transform="matrix(1 0 0 1 933.7407 235.4003)" class="st2 st3 st4">`</text>
<text transform="matrix(1 0 0 1 870.3629 235.4002)" class="st2 st3 st4">\</text>
<text transform="matrix(1 0 0 1 808.5958 235.4002)" class="st2 st3 st4">;</text>
<text transform="matrix(1 0 0 1 744.8873 235.4002)" class="st2 st3 st4">]</text>
<text transform="matrix(1 0 0 1 681.8873 235.4002)" class="st2 st3 st4">[</text>
<text transform="matrix(1 0 0 1 607.5812 235.4002)" class="st2 st3 st4">F10</text>
<text transform="matrix(1 0 0 1 549.3004 235.4002)" class="st2 st3 st4">F9</text>
<text transform="matrix(1 0 0 1 486.3004 235.4002)" class="st2 st3 st4">F8</text>
<text transform="matrix(1 0 0 1 423.3004 235.4002)" class="st2 st3 st4">F7</text>
<text transform="matrix(1 0 0 1 360.3004 235.4002)" class="st2 st3 st4">F6</text>
<text transform="matrix(1 0 0 1 297.3004 235.4002)" class="st2 st3 st4">F5</text>
<text transform="matrix(1 0 0 1 234.3004 235.4002)" class="st2 st3 st4">F4</text>
<text transform="matrix(1 0 0 1 171.3004 235.4002)" class="st2 st3 st4">F3</text>
<text transform="matrix(1 0 0 1 108.3004 235.4002)" class="st2 st3 st4">F2</text>
<text transform="matrix(1 0 0 1 49.0173 297.4003)" class="st2 st3 st4">~</text>
<text transform="matrix(1 0 0 1 930.9345 297.4003)" class="st2 st3 st4">&amp;</text>
<text transform="matrix(1 0 0 1 868.0172 297.4002)" class="st2 st3 st4">^</text>
<text transform="matrix(1 0 0 1 803.214 297.4002)" class="st2 st3 st4">%</text>
<text transform="matrix(1 0 0 1 742.7809 297.4002)" class="st2 st3 st4">$</text>
<text transform="matrix(1 0 0 1 679.9279 297.4002)" class="st2 st3 st4">#</text>
<text transform="matrix(1 0 0 1 614.7198 297.4002)" class="st2 st3 st4">@</text>
<text transform="matrix(1 0 0 1 556.3844 297.4002)" class="st2 st3 st4">!</text>
<text transform="matrix(1 0 0 1 492.8873 297.4002)" class="st2 st3 st4">}</text>
<text transform="matrix(1 0 0 1 429.8873 297.4002)" class="st2 st3 st4">{</text>
<text transform="matrix(1 0 0 1 366.2438 297.4002)" class="st2 st3 st4">“</text>
<text transform="matrix(1 0 0 1 304.5958 297.4002)" class="st2 st3 st4">:</text>
<text transform="matrix(1 0 0 1 239.7653 297.4002)" class="st2 st3 st4">?</text>
<text transform="matrix(1 0 0 1 175.0172 297.4002)" class="st2 st3 st4">&gt;</text>
<text transform="matrix(1 0 0 1 112.0172 297.4002)" class="st2 st3 st4">&lt;</text>
<text transform="matrix(1 0 0 1 50.6823 359.4003)" class="st2 st3 st4">*</text>
<text transform="matrix(1 0 0 1 916.3701 359.4003)" class="st2 st3 st5">POWER</text>
<text transform="matrix(1 0 0 1 858.1993 359.4002)" class="st2 st3 st5">KEYL-</text>
<text transform="matrix(1 0 0 1 796.4796 359.4002)" class="st2 st3 st5">PLAY</text>
<text transform="matrix(1 0 0 1 729.4562 359.4002)" class="st2 st3 st5">PAUSE</text>
<text transform="matrix(1 0 0 1 673.359 359.4002)" class="st2 st3 st5">FOR</text>
<text transform="matrix(1 0 0 1 609.3063 359.4002)" class="st2 st3 st5">REW</text>
<text transform="matrix(1 0 0 1 541.3209 359.4002)" class="st2 st3 st5">KEYL+</text>
<text transform="matrix(1 0 0 1 482.3312 359.4002)" class="st2 st3 st5">VOL-</text>
<text transform="matrix(1 0 0 1 417.4528 359.4002)" class="st2 st3 st5">VOL+</text>
<text transform="matrix(1 0 0 1 357.2545 359.4002)" class="st2 st3 st5">BRT-</text>
<text transform="matrix(1 0 0 1 292.3756 359.4002)" class="st2 st3 st5">BRT+</text>
<text transform="matrix(1 0 0 1 241.3014 359.4002)" class="st2 st3 st4">|</text>
<text transform="matrix(1 0 0 1 177.8873 359.4002)" class="st2 st3 st4">)</text>
<text transform="matrix(1 0 0 1 114.8873 359.4002)" class="st2 st3 st4">(</text>
<text transform="matrix(1 0 0 1 35.5373 416.109)" class="st2 st3 st6">SPACE</text>
<text transform="matrix(1 0 0 1 918.4965 416.109)" class="st2 st3 st6">RIGHT</text>
<text transform="matrix(1 0 0 1 859.8644 416.1089)" class="st2 st3 st6">LEFT</text>
<text transform="matrix(1 0 0 1 790.4874 416.1089)" class="st2 st3 st6">DOWN</text>
<text transform="matrix(1 0 0 1 739.2472 416.1089)" class="st2 st3 st6">UP</text>
<text transform="matrix(1 0 0 1 662.7238 416.1089)" class="st2 st3 st6">DELETE</text>
<text transform="matrix(1 0 0 1 597.9103 416.1089)" class="st2 st3 st6">RETURN</text>
<text transform="matrix(1 0 0 1 544.1505 416.1089)" class="st2 st3 st6">CMD</text>
<text transform="matrix(1 0 0 1 472.3722 416.1089)" class="st2 st3 st6">OPTION</text>
<text transform="matrix(1 0 0 1 417.8912 416.1089)" class="st2 st3 st6">CTRL</text>
<text transform="matrix(1 0 0 1 361.485 416.1089)" class="st2 st3 st6">FN</text>
<text transform="matrix(1 0 0 1 289.9244 416.1089)" class="st2 st3 st6">SHIFT</text>
<text transform="matrix(1 0 0 1 227.9113 407.709)"><tspan x="0" y="0" class="st2 st3 st6">CAPS</tspan><tspan x="-0.46" y="16.8" class="st2 st3 st6">LOCK</tspan></text>
<text transform="matrix(1 0 0 1 168.943 416.1089)" class="st2 st3 st6">TAB</text>
<text transform="matrix(1 0 0 1 106.5455 416.1089)" class="st2 st3 st6">ESC</text>
</svg>
