<?xml version="1.0" encoding="utf-8"?>
<!-- Generator: Adobe Illustrator 24.0.1, SVG Export Plug-In . SVG Version: 6.00 Build 0)  -->
<svg version="1.1" id="Layer_1" xmlns="http://www.w3.org/2000/svg" xmlns:xlink="http://www.w3.org/1999/xlink" x="0px" y="0px"
	 viewBox="0 0 991 458" style="enable-background:new 0 0 991 458;" xml:space="preserve">
<style type="text/css">
	.st0{fill:#4C4C4C;}
	.st1{stroke:#3F3F3F;stroke-width:2;stroke-miterlimit:10;}
	.st2{fill:#FFFFFF;}
	.st3{font-family:'MyriadPro-Regular';}
	.st4{font-size:18.3993px;}
	.st5{font-size:14px;}
	.st6{fill:none;stroke:#FFFFFF;stroke-miterlimit:10;}
	.st7{fill:none;stroke:#FFFFFF;stroke-width:3;stroke-miterlimit:10;}
	.st8{font-size:36.7784px;}
</style>
<rect class="st0" width="991" height="458"/>
<rect x="18" y="14" class="st1" width="61" height="61"/>
<rect x="95" y="14" class="st1" width="102" height="39"/>
<rect x="95" y="63" class="st1" width="68" height="122"/>
<rect x="18" y="90" class="st1" width="61" height="38"/>
<rect x="18" y="145" class="st1" width="61" height="79"/>
<rect x="18" y="237" class="st1" width="121" height="52"/>
<rect x="95" y="196" class="st1" width="110" height="28"/>
<rect x="177" y="104" class="st1" width="73" height="81"/>
<rect x="177" y="63" class="st1" width="107" height="30"/>
<rect x="150" y="237" class="st1" width="72" height="72"/>
<rect x="18" y="300" class="st1" width="70" height="45"/>
<rect x="102" y="300" class="st1" width="27" height="45"/>
<rect x="139" y="323" class="st1" width="129" height="59"/>
<rect x="217" y="196" class="st1" width="63" height="33"/>
<rect x="231" y="237" class="st1" width="49" height="72"/>
<rect x="260" y="104" class="st1" width="110" height="35"/>
<rect x="263" y="150" class="st1" width="75" height="35"/>
<rect x="291" y="196" class="st1" width="111" height="104"/>
<rect x="18" y="357" class="st1" width="111" height="86"/>
<rect x="222" y="14" class="st1" width="254" height="39"/>
<rect x="300" y="63" class="st1" width="27" height="27"/>
<rect x="346" y="63" class="st1" width="79" height="27"/>
<rect x="356" y="150" class="st1" width="108" height="35"/>
<rect x="394" y="104" class="st1" width="102" height="35"/>
<rect x="440" y="63" class="st1" width="56" height="30"/>
<rect x="489" y="14" class="st1" width="139" height="39"/>
<rect x="508" y="63" class="st1" width="55" height="166"/>
<rect x="415" y="196" class="st1" width="25" height="62"/>
<rect x="453" y="196" class="st1" width="39" height="62"/>
<rect x="415" y="267" class="st1" width="131" height="33"/>
<rect x="511" y="237" class="st1" width="84" height="21"/>
<rect x="574" y="63" class="st1" width="135" height="83"/>
<rect x="642" y="14" class="st1" width="24" height="39"/>
<rect x="679" y="14" class="st1" width="24" height="39"/>
<rect x="716" y="14" class="st1" width="24" height="39"/>
<rect x="753" y="14" class="st1" width="24" height="39"/>
<rect x="790" y="14" class="st1" width="24" height="39"/>
<rect x="827" y="14" class="st1" width="24" height="39"/>
<rect x="864" y="14" class="st1" width="24" height="39"/>
<rect x="901" y="14" class="st1" width="24" height="39"/>
<rect x="938" y="14" class="st1" width="24" height="39"/>
<rect x="583" y="168" class="st1" width="157" height="51"/>
<rect x="608" y="237" class="st1" width="132" height="108"/>
<rect x="559" y="273" class="st1" width="36" height="109"/>
<rect x="370" y="309" class="st1" width="175" height="65"/>
<rect x="284" y="323" class="st1" width="72" height="95"/>
<rect x="139" y="400" class="st1" width="41" height="41"/>
<rect x="197" y="391" class="st1" width="66" height="50"/>
<rect x="370" y="382" class="st1" width="175" height="59"/>
<rect x="559" y="400" class="st1" width="95" height="41"/>
<rect x="608" y="353" class="st1" width="174" height="38"/>
<rect x="671" y="400" class="st1" width="94" height="43"/>
<rect x="782" y="400" class="st1" width="41" height="41"/>
<rect x="839" y="279" class="st1" width="62" height="157"/>
<rect x="913" y="323" class="st1" width="59" height="59"/>
<rect x="913" y="400" class="st1" width="59" height="36"/>
<rect x="950" y="248" class="st1" width="22" height="61"/>
<rect x="913" y="229" class="st1" width="25" height="80"/>
<rect x="950" y="229" class="st1" width="22" height="8"/>
<rect x="839" y="229" class="st1" width="62" height="40"/>
<rect x="753" y="237" class="st1" width="74" height="108"/>
<rect x="790" y="354" class="st1" width="37" height="37"/>
<rect x="718" y="63" class="st1" width="90" height="27"/>
<rect x="718" y="104" class="st1" width="54" height="54"/>
<rect x="755" y="168" class="st1" width="59" height="59"/>
<rect x="782" y="104" class="st1" width="160" height="54"/>
<rect x="827" y="63" class="st1" width="103" height="27"/>
<rect x="950" y="63" class="st1" width="22" height="149"/>
<rect x="827" y="167" class="st1" width="111" height="45"/>
<text transform="matrix(1 0 0 1 42.8699 49.9001)" class="st2 st3 st4">A</text>
<text transform="matrix(1 0 0 1 659.6978 322.4232)" class="st2 st3 st5">SPACE</text>
<text transform="matrix(1 0 0 1 586.8843 90.4232)" class="st2 st3 st5">DELETE</text>
<text transform="matrix(1 0 0 1 877.0708 139.4232)" class="st2 st3 st5">RETURN</text>
<text transform="matrix(1 0 0 1 438.311 411.4231)" class="st2 st3 st5">CMD</text>
<text transform="matrix(1 0 0 1 50.5327 400.4231)" class="st2 st3 st5">OPTION</text>
<text transform="matrix(1 0 0 1 775.0518 300.4232)" class="st2 st3 st5">CTRL</text>
<text transform="matrix(1 0 0 1 527.6455 158.4232)" class="st2 st3 st5">FN</text>
<text transform="matrix(1 0 0 1 232.085 212.4232)" class="st2 st3 st5">SHIFT</text>
<text transform="matrix(1 0 0 1 442.0718 341.0233)"><tspan x="0" y="0" class="st2 st3 st5">CAPS</tspan><tspan x="-0.46" y="16.8" class="st2 st3 st5">LOCK</tspan></text>
<text transform="matrix(1 0 0 1 192.1035 131.4232)" class="st2 st3 st5">TAB</text>
<text transform="matrix(1 0 0 1 733.7061 137.4232)" class="st2 st3 st5">ESC</text>
<polygon class="st2" points="941.53,344 952.85,344 947.19,353.81 941.53,363.62 935.86,353.81 930.2,344 "/>
<polygon class="st2" points="812.31,420.5 812.31,431.83 802.5,426.16 792.69,420.5 802.5,414.84 812.31,409.17 "/>
<polygon class="st2" points="936,419.68 936,408.35 945.81,414.02 955.62,419.68 945.81,425.34 936,431.01 "/>
<polygon class="st2" points="870.29,316 858.96,316 864.62,306.19 870.29,296.38 875.95,306.19 881.61,316 "/>
<text transform="matrix(1 0 0 1 649.3046 38.9)" class="st2 st3 st4">1</text>
<text transform="matrix(1 0 0 1 908.6378 38.9)" class="st2 st3 st4">8</text>
<text transform="matrix(1 0 0 1 870.8602 38.9)" class="st2 st3 st4">7</text>
<text transform="matrix(1 0 0 1 834.4158 38.9)" class="st2 st3 st4">6</text>
<text transform="matrix(1 0 0 1 797.5269 38.9)" class="st2 st3 st4">5</text>
<text transform="matrix(1 0 0 1 760.749 38.9)" class="st2 st3 st4">4</text>
<text transform="matrix(1 0 0 1 723.0823 38.9)" class="st2 st3 st4">3</text>
<text transform="matrix(1 0 0 1 686.1934 38.9)" class="st2 st3 st4">2</text>
<text transform="matrix(1 0 0 1 553.9714 39.2156)" class="st2 st3 st4">0</text>
<text transform="matrix(1 0 0 1 945.3047 38.9001)" class="st2 st3 st4">9</text>
<g>
	<circle class="st6" cx="346.5" cy="256.25" r="16.5"/>
	<rect x="339.5" y="223.25" width="15" height="29"/>
	<line class="st7" x1="347" y1="235.75" x2="347" y2="246.25"/>
</g>
<text transform="matrix(1 0 0 1 123.5476 124.072)" class="st2 st3 st4">B</text>
<text transform="matrix(1 0 0 1 136.9952 39.0461)" class="st2 st3 st4">C</text>
<text transform="matrix(1 0 0 1 423.104 233.3712)" class="st2 st3 st4">L</text>
<text transform="matrix(1 0 0 1 463.3677 237.3712)" class="st2 st3 st4">K</text>
<text transform="matrix(1 0 0 1 200.0425 360.3712)" class="st2 st3 st4">J</text>
<text transform="matrix(1 0 0 1 51.2476 322.3712)" class="st2 st3 st4">I</text>
<text transform="matrix(1 0 0 1 401.4478 175.3712)" class="st2 st3 st4">H</text>
<text transform="matrix(1 0 0 1 140.5034 217.3712)" class="st2 st3 st4">G</text>
<text transform="matrix(1 0 0 1 380.9658 82.3712)" class="st2 st3 st4">F</text>
<text transform="matrix(1 0 0 1 68.9204 272.3712)" class="st2 st3 st4">E</text>
<text transform="matrix(1 0 0 1 225.3188 82.3712)" class="st2 st3 st4">D</text>
<text transform="matrix(1 0 0 1 463.5519 82.3713)" class="st2 st3 st4">P</text>
<text transform="matrix(1 0 0 1 155.3589 426.3712)" class="st2 st3 st4">Z</text>
<text transform="matrix(1 0 0 1 225.4692 426.3712)" class="st2 st3 st4">Y</text>
<text transform="matrix(1 0 0 1 110.1938 327.3712)" class="st2 st3 st4">X</text>
<text transform="matrix(1 0 0 1 178.6631 278.3712)" class="st2 st3 st4">W</text>
<text transform="matrix(1 0 0 1 250.2856 273.3712)" class="st2 st3 st4">V</text>
<text transform="matrix(1 0 0 1 42.4946 193.3712)" class="st2 st3 st4">U</text>
<text transform="matrix(1 0 0 1 308.874 128.3712)" class="st2 st3 st4">T</text>
<text transform="matrix(1 0 0 1 295.9106 175.3712)" class="st2 st3 st4">S</text>
<text transform="matrix(1 0 0 1 440.4966 131.3712)" class="st2 st3 st4">R</text>
<text transform="matrix(1 0 0 1 307.1079 82.3712)" class="st2 st3 st4">Q</text>
<text transform="matrix(1 0 0 1 44.0913 114.9359)" class="st2 st3 st4">I</text>
<text transform="matrix(1 0 0 1 331.8684 38.7396)" class="st2 st3 st4">O</text>
<text transform="matrix(1 0 0 1 314.1533 370.7395)" class="st2 st3 st4">N</text>
<text transform="matrix(1 0 0 1 472.81 288.7395)" class="st2 st3 st4">M</text>
<text transform="matrix(6.123234e-17 -1 1 6.123234e-17 583.6819 339.3383)" class="st2 st3 st5">CMD</text>
<text transform="matrix(1 0 0 1 855.2227 255.098)" class="st2 st3 st5">CMD</text>
<text transform="matrix(1 0 0 1 680.2227 376.098)" class="st2 st3 st5">CMD</text>
<text transform="matrix(1 0 0 1 592.2227 426.098)" class="st2 st3 st5">CMD</text>
<text transform="matrix(1 0 0 1 703.2227 421.098)" class="st2 st3 st5">CMD</text>
<text transform="matrix(1 0 0 1 868.2227 196.098)" class="st2 st3 st5">CMD</text>
<text transform="matrix(1 0 0 1 770.2227 197.098)" class="st2 st3 st5">CMD</text>
<text transform="matrix(1 0 0 1 639.2227 197.098)" class="st2 st3 st5">CMD</text>
<text transform="matrix(1 0 0 1 804.9573 374.1723)" class="st2 st3 st8">.</text>
</svg>
