<?xml version="1.0" encoding="utf-8"?>
<!-- Generator: Adobe Illustrator 24.0.1, SVG Export Plug-In . SVG Version: 6.00 Build 0)  -->
<svg version="1.1" xmlns="http://www.w3.org/2000/svg" xmlns:xlink="http://www.w3.org/1999/xlink" x="0px" y="0px"
	 viewBox="0 0 154.64 180.07" style="enable-background:new 0 0 154.64 180.07;" xml:space="preserve">
<style type="text/css">
	.st0{fill:#F2F0E9;}
	.st1{fill:#444140;}
	.st2{fill:#F97F00;}
	.st3{display:none;fill:none;stroke:#444140;stroke-miterlimit:10;}
	.st4{fill:#F5EFE5;stroke:#444140;stroke-width:1.5;stroke-linejoin:round;stroke-miterlimit:10;}
	.st5{fill:#F5EFE5;}
	.st6{fill:none;stroke:#444140;stroke-width:0.9849;stroke-linecap:round;stroke-miterlimit:10;}
	.st7{fill:none;stroke:#444140;stroke-linecap:round;stroke-miterlimit:10;}
	.st8{fill:#444140;stroke:#444140;stroke-linejoin:round;stroke-miterlimit:10;}
	.st9{fill:#75B3BB;}
	.st10{fill:#FFAE3C;stroke:#444140;stroke-linejoin:round;stroke-miterlimit:10;}
	.st11{display:none;fill:#FFAE3C;stroke:#FFAE3C;stroke-width:1.5;stroke-linejoin:round;stroke-miterlimit:10;}
	.st12{fill:#444140;stroke:#444140;stroke-width:2;stroke-linejoin:round;stroke-miterlimit:10;}
	.st13{display:none;}
	.st14{display:inline;}
</style>
<g id="bg">
	<rect class="st0" width="154.64" height="180.07"/>
</g>
<g id="logo">
	<g id="text">
		<g>
			<path class="st1" d="M39.8,130.3v3.32c-0.46,0.23-0.9,0.4-1.34,0.52c-0.43,0.12-0.86,0.17-1.26,0.17c-1.04,0-1.9-0.34-2.58-1.03
				c-0.69-0.69-1.03-1.55-1.03-2.59c0-1.05,0.35-1.93,1.04-2.62c0.69-0.69,1.57-1.04,2.64-1.04c0.4,0,0.78,0.05,1.15,0.17
				c0.36,0.11,0.71,0.28,1.05,0.5l-0.17,1.71c-0.32-0.32-0.63-0.55-0.95-0.7c-0.31-0.15-0.64-0.22-0.99-0.22
				c-0.61,0-1.12,0.21-1.52,0.61s-0.6,0.92-0.6,1.54c0,0.65,0.19,1.17,0.58,1.58c0.39,0.41,0.89,0.61,1.5,0.61
				c0.14,0,0.28-0.01,0.43-0.04c0.14-0.02,0.29-0.06,0.45-0.11v-0.99h-1.29v-1.39H39.8z"/>
			<path class="st1" d="M41.1,130.68c0-0.5,0.09-0.98,0.26-1.42c0.17-0.44,0.43-0.84,0.77-1.18c0.32-0.33,0.69-0.59,1.12-0.76
				c0.42-0.18,0.87-0.27,1.33-0.27s0.91,0.09,1.33,0.27c0.42,0.18,0.8,0.44,1.13,0.77c0.33,0.33,0.58,0.72,0.75,1.16
				s0.26,0.92,0.26,1.43c0,0.43-0.06,0.83-0.18,1.2c-0.12,0.38-0.3,0.72-0.53,1.03c-0.33,0.44-0.74,0.79-1.23,1.03
				c-0.48,0.24-1,0.37-1.54,0.37c-0.46,0-0.9-0.09-1.32-0.27c-0.42-0.18-0.8-0.44-1.12-0.77c-0.34-0.35-0.59-0.74-0.77-1.18
				C41.19,131.65,41.1,131.18,41.1,130.68z M42.78,130.68c0,0.59,0.17,1.09,0.52,1.49c0.35,0.4,0.77,0.6,1.28,0.6
				c0.51,0,0.94-0.2,1.28-0.6c0.35-0.4,0.52-0.9,0.52-1.49c0-0.6-0.17-1.1-0.52-1.5c-0.34-0.4-0.77-0.6-1.28-0.6
				c-0.51,0-0.94,0.2-1.28,0.6C42.95,129.58,42.78,130.08,42.78,130.68z"/>
			<path class="st1" d="M49.57,134.09v-6.82h1.63v5.36h2.66v1.46H49.57z"/>
			<path class="st1" d="M55.03,134.09v-6.82h1.81c1.27,0,2.27,0.3,2.99,0.91c0.72,0.61,1.08,1.44,1.08,2.5
				c0,0.63-0.14,1.2-0.43,1.69c-0.29,0.49-0.7,0.89-1.26,1.21c-0.31,0.18-0.65,0.31-1.02,0.39s-0.82,0.12-1.37,0.12H55.03z
				 M56.64,132.62H57c0.71,0,1.27-0.17,1.67-0.52c0.4-0.35,0.6-0.82,0.6-1.43s-0.2-1.09-0.6-1.43c-0.4-0.35-0.96-0.52-1.67-0.52
				h-0.36V132.62z"/>
			<path class="st1" d="M62.43,134.09v-6.82h4.2v1.41h-2.62v1.23h2.24v1.4h-2.24v1.35h2.66v1.43H62.43z"/>
			<path class="st1" d="M68.29,134.09v-7.04h0.16l4.25,3.98v-3.76h1.5v7.08h-0.14l-4.26-3.98v3.72H68.29z"/>
			<path class="st1" d="M80.68,134.09v-5.4h-2.17v-1.43h5.96v1.43h-2.16v5.4H80.68z"/>
			<path class="st2" d="M85.2,130.68c0-0.5,0.09-0.98,0.26-1.42c0.17-0.44,0.43-0.84,0.77-1.18c0.32-0.33,0.69-0.59,1.12-0.76
				c0.42-0.18,0.87-0.27,1.33-0.27s0.91,0.09,1.33,0.27c0.42,0.18,0.8,0.44,1.13,0.77c0.33,0.33,0.58,0.72,0.75,1.16
				s0.26,0.92,0.26,1.43c0,0.43-0.06,0.83-0.18,1.2c-0.12,0.38-0.3,0.72-0.53,1.03c-0.33,0.44-0.74,0.79-1.23,1.03
				c-0.48,0.24-1,0.37-1.54,0.37c-0.46,0-0.9-0.09-1.32-0.27c-0.42-0.18-0.8-0.44-1.12-0.77c-0.34-0.35-0.59-0.74-0.77-1.18
				C85.29,131.65,85.2,131.18,85.2,130.68z M86.87,130.68c0,0.59,0.17,1.09,0.52,1.49c0.35,0.4,0.77,0.6,1.28,0.6
				c0.51,0,0.94-0.2,1.28-0.6c0.35-0.4,0.52-0.9,0.52-1.49c0-0.6-0.17-1.1-0.52-1.5c-0.34-0.4-0.77-0.6-1.28-0.6
				c-0.51,0-0.94,0.2-1.28,0.6C87.05,129.58,86.87,130.08,86.87,130.68z"/>
			<path class="st1" d="M93.24,130.68c0-0.5,0.09-0.98,0.26-1.42c0.17-0.44,0.43-0.84,0.77-1.18c0.32-0.33,0.69-0.59,1.12-0.76
				c0.42-0.18,0.87-0.27,1.33-0.27s0.91,0.09,1.33,0.27c0.42,0.18,0.8,0.44,1.13,0.77c0.33,0.33,0.58,0.72,0.75,1.16
				s0.26,0.92,0.26,1.43c0,0.43-0.06,0.83-0.18,1.2c-0.12,0.38-0.3,0.72-0.53,1.03c-0.33,0.44-0.74,0.79-1.23,1.03
				c-0.48,0.24-1,0.37-1.54,0.37c-0.46,0-0.9-0.09-1.32-0.27c-0.42-0.18-0.8-0.44-1.12-0.77c-0.34-0.35-0.59-0.74-0.77-1.18
				C93.33,131.65,93.24,131.18,93.24,130.68z M94.92,130.68c0,0.59,0.17,1.09,0.52,1.49c0.35,0.4,0.77,0.6,1.28,0.6
				c0.51,0,0.94-0.2,1.28-0.6c0.35-0.4,0.52-0.9,0.52-1.49c0-0.6-0.17-1.1-0.52-1.5c-0.34-0.4-0.77-0.6-1.28-0.6
				c-0.51,0-0.94,0.2-1.28,0.6C95.09,129.58,94.92,130.08,94.92,130.68z"/>
			<path class="st1" d="M103.1,134.09v-5.4h-2.17v-1.43h5.96v1.43h-2.16v5.4H103.1z"/>
			<path class="st1" d="M108.04,134.09v-6.82h1.61v2.5h2.63v-2.5h1.6v6.82h-1.6v-2.86h-2.63v2.86H108.04z"/>
		</g>
		<line class="st3" x1="-85.77" y1="317.98" x2="-76.77" y2="317.98"/>
		<line class="st3" x1="10.86" y1="317.98" x2="19.86" y2="317.98"/>
		<line class="st3" x1="96.73" y1="317.98" x2="105.73" y2="317.98"/>
		<line class="st3" x1="193.36" y1="317.98" x2="202.36" y2="317.98"/>
	</g>
	<g id="ears">
		<g>
			<path class="st4" d="M53.23,85.67c0,0-1.94-1.69-3-0.81c-1.06,0.88-0.75,3.62,0.62,4.69s3.19,0.06,3.19,0.06L53.23,85.67z"/>
			<path class="st4" d="M92.26,81.11c0,0,1.66-1.62,3.22-0.88s1.5,3.81,0.25,4.81s-3.25,1.38-3.25,1.38L92.26,81.11z"/>
		</g>
	</g>
	<g id="face">
		<g>
			<path class="st5" d="M93.48,94.61c0,0-0.62-5.62-0.5-9.25s0.25-7.88-0.62-10.38s-4.38-6.62-4.38-6.62l-13.5-2.75l-14.75,2.25
				l-7.12,6.5l0.12,6.5c0,0,0.5,2.62,0.75,5.88s0.38,9.38,0.38,9.38L93.48,94.61z"/>
			<path class="st1" d="M92.91,94.12c-0.11,0.09-0.19,0.27-0.19,0.42c0,0.11,0,0.08,0,0.07l0-0.03l-0.02-0.11l-0.04-0.22l-0.07-0.43
				l-0.13-0.86l-0.23-1.73c-0.15-1.16-0.26-2.32-0.34-3.49c-0.09-1.16-0.08-2.4-0.07-3.53c0-1.15,0.02-2.28-0.02-3.41
				c-0.08-2.23-0.18-4.52-1.02-6.2c-0.93-1.87-2.24-3.78-3.37-5.76l0,0l0.42,0.25l-13.5-2.75l0.26,0.01L59.85,68.6l0.39-0.19
				l-7.12,6.5l0,0l0.24-0.57c0.16,2.16,0.28,4.33,0.37,6.5l-0.02-0.17c0.26,1.3,0.48,2.56,0.63,3.85c0.17,1.29,0.26,2.59,0.31,3.86
				c0.14,2.56,0.22,5.13-0.04,7.7l0,0l-0.78-0.73C66.85,94.86,79.82,94.47,92.91,94.12z M94.05,95.1
				c-13.32,0.65-26.77,1.26-40.16,1.76l-0.68,0.03l-0.09-0.76l0,0c-0.46-2.53-0.58-5.05-0.65-7.59c-0.03-1.27-0.09-2.52-0.23-3.77
				c-0.14-1.24-0.27-2.51-0.46-3.72l-0.02-0.11l0-0.06c0-2.17,0.04-4.34,0.12-6.5L51.87,74l0.23-0.2l0,0l7.12-6.5l0.17-0.15
				l0.22-0.03l14.75-2.25l0.13-0.02l0.13,0.03l13.5,2.75l0.25,0.05l0.18,0.2l0,0c1.8,1.58,3.32,3.35,4.54,5.56
				c0.3,0.56,0.57,1.24,0.72,1.87c0.17,0.64,0.26,1.25,0.34,1.87c0.15,1.22,0.19,2.42,0.18,3.6c0.02,2.37-0.25,4.68-0.25,6.9
				c-0.01,1.13,0.01,2.27,0.03,3.42l0.05,1.72l0.03,0.86l0.01,0.43l0.01,0.21l0,0.11l0.01,0.15C94.23,94.75,94.15,94.97,94.05,95.1z
				"/>
		</g>
	</g>
	<g id="circles">
		<path class="st6" d="M36.41,115.97c-6.6-8.41-10.18-18.79-10.18-29.47c0-26.26,21.67-47.86,48-47.86s48,21.6,48,47.86
			c0,10.64-3.56,20.99-10.12,29.39"/>
		<path class="st7" d="M38.04,115.34c-6.44-8.15-9.95-18.24-9.95-28.62c0-25.31,20.83-46.14,46.14-46.14s46.14,20.83,46.14,46.14
			c0,10.43-3.54,20.57-10.04,28.73"/>
		<circle class="st8" cx="119.11" cy="131.11" r="1.06"/>
		<circle class="st8" cx="29" cy="131.11" r="1.06"/>
	</g>
	<g id="beard">
		<g>
			<path class="st9" d="M45.69,112.36c0,0,10.33,7.83,28.33,7.5c18-0.33,28.67-12,28.67-12s-4.17-3.33-6.5-6.83s-3-7.5-3-7.5h-19
				l-20.33,2.58c0,0-0.56,5.19-2.81,8.94S45.69,112.36,45.69,112.36z"/>
			<path class="st1" d="M46.44,112.28c0.02-0.13-0.03-0.3-0.12-0.39c-0.02-0.02-0.05-0.05-0.06-0.06l0.02,0.01l0.05,0.03l0.2,0.12
				l0.4,0.23c0.27,0.16,0.55,0.3,0.82,0.44c0.56,0.28,1.11,0.58,1.68,0.83c1.13,0.53,2.29,1.01,3.47,1.43
				c2.36,0.85,4.76,1.54,7.21,2.07c4.89,1.03,9.92,1.45,14.88,1.19c4.93-0.25,9.8-1.35,14.38-3.23c4.58-1.84,8.97-4.44,12.77-7.62
				l0,0l0.08,1.09c-1.17-0.96-2.26-1.96-3.31-3.02c-1.05-1.06-2.05-2.18-2.95-3.41c-0.9-1.24-1.62-2.6-2.2-4
				c-0.57-1.41-1.02-2.83-1.31-4.36l0.74,0.63h-19l0.09-0.01l-20.33,2.58l0,0l0.65-0.66c-0.16,1.61-0.46,3.14-0.89,4.68
				c-0.44,1.53-1.01,3.04-1.84,4.46c-0.82,1.37-1.7,2.66-2.64,3.9c-0.47,0.62-0.95,1.24-1.45,1.84l-0.76,0.89l-0.38,0.44l-0.19,0.22
				l-0.1,0.11l-0.05,0.06l-0.01,0.01c0.03-0.04,0.07-0.09,0.1-0.15C46.45,112.54,46.46,112.39,46.44,112.28z M44.94,112.44
				c-0.01-0.13,0.02-0.29,0.09-0.43c0.03-0.07,0.08-0.13,0.12-0.18l0.01-0.01l0.04-0.05l0.09-0.11l0.18-0.22l0.35-0.45l0.7-0.91
				c0.46-0.61,0.92-1.22,1.36-1.84c0.88-1.24,1.75-2.49,2.5-3.78c0.72-1.25,1.27-2.64,1.71-4.06c0.43-1.42,0.79-2.91,1.02-4.36
				l0.01-0.04c0.05-0.34,0.32-0.58,0.65-0.63l0,0l20.33-2.58c0.03,0,0.06-0.01,0.09-0.01h19c0.37,0,0.67,0.26,0.74,0.61l0,0.02
				c0.26,1.34,0.69,2.74,1.22,4.04c0.54,1.31,1.21,2.55,2.03,3.69c0.83,1.14,1.78,2.21,2.8,3.24c1.01,1.02,2.09,2,3.18,2.9
				c0.32,0.27,0.37,0.74,0.1,1.07l0,0.01l-0.02,0.02l0,0c-1.72,2.08-3.69,3.81-5.83,5.38c-2.12,1.57-4.44,2.89-6.85,4
				c-4.81,2.28-10.13,3.43-15.44,3.65c-5.29,0.22-10.56-0.4-15.66-1.73c-2.54-0.7-5.04-1.55-7.42-2.67
				c-1.19-0.55-2.36-1.15-3.5-1.81c-0.57-0.33-1.13-0.67-1.68-1.04c-0.27-0.19-0.55-0.37-0.81-0.57l-0.4-0.3l-0.2-0.16l-0.19-0.15
				C45.1,112.83,44.99,112.61,44.94,112.44z"/>
		</g>
		<g>
			<path class="st1" d="M53.07,115.76c0.18-0.59,0.53-0.95,0.91-1.26c0.39-0.3,0.77-0.62,1.16-0.93c0.76-0.64,1.53-1.28,2.25-1.97
				c1.48-1.36,2.81-2.91,4-4.58c0.11-0.16,0.33-0.19,0.48-0.08c0.14,0.1,0.19,0.29,0.11,0.44c-0.95,1.85-2.02,3.67-3.27,5.39
				c-0.64,0.85-1.31,1.68-2.07,2.44c-0.37,0.39-0.77,0.74-1.17,1.1c-0.4,0.35-0.87,0.63-1.51,0.66c-0.5,0.02-0.92-0.36-0.95-0.86
				c-0.01-0.11,0.01-0.21,0.04-0.31L53.07,115.76z"/>
		</g>
		<g>
			<path class="st1" d="M62.6,118.23c-0.29-1.25,0.44-1.66,0.87-2.33c0.46-0.63,0.93-1.27,1.35-1.94c0.89-1.32,1.66-2.74,2.56-4.2
				c0.09-0.15,0.29-0.2,0.45-0.11c0.1,0.06,0.16,0.17,0.16,0.29c-0.04,1.74-0.42,3.45-1.03,5.1c-0.32,0.82-0.69,1.63-1.14,2.39
				c-0.47,0.73-0.72,1.67-2.04,1.72c-0.56,0.02-1.05-0.36-1.17-0.89L62.6,118.23z"/>
		</g>
		<g>
			<path class="st1" d="M73.98,119.45c-0.51-0.49-0.52-0.79-0.4-1.06c0.09-0.28,0.18-0.56,0.26-0.84c0.14-0.56,0.32-1.13,0.44-1.71
				c0.28-1.15,0.47-2.34,0.73-3.61l0-0.01c0.06-0.3,0.35-0.49,0.65-0.43c0.19,0.04,0.34,0.17,0.41,0.34c0.5,1.26,0.69,2.62,0.7,3.98
				c-0.02,0.68-0.05,1.37-0.18,2.04c-0.06,0.34-0.13,0.67-0.2,1.01c-0.06,0.34-0.25,0.65-0.96,0.76c-0.52,0.08-1.02-0.09-1.37-0.43
				L73.98,119.45z"/>
		</g>
		<g>
			<path class="st1" d="M87.06,117.1c-0.95,0.09-1.06-0.39-1.25-0.78c-0.19-0.4-0.37-0.8-0.53-1.21c-0.32-0.81-0.55-1.65-0.75-2.48
				c-0.36-1.67-0.52-3.36-0.41-5.04c0.01-0.23,0.21-0.41,0.44-0.39c0.16,0.01,0.3,0.12,0.36,0.26c0.66,1.52,1.22,3.02,1.86,4.45
				c0.31,0.72,0.65,1.41,1,2.08c0.17,0.34,0.36,0.66,0.55,0.98c0.19,0.33,0.5,0.54-0.02,1.33l-0.06,0.08
				C87.99,116.8,87.53,117.05,87.06,117.1z"/>
		</g>
		<g>
			<path class="st1" d="M96.66,113.28c-1.8-0.93-3.35-2.2-4.65-3.61c-1.3-1.41-2.38-2.97-3.33-4.57c-0.12-0.2-0.05-0.45,0.15-0.57
				c0.18-0.11,0.4-0.06,0.53,0.09c2.34,2.76,5.16,5.17,8.35,6.16c0.72,0.22,1.12,0.99,0.9,1.71c-0.22,0.72-0.99,1.12-1.71,0.9
				c-0.08-0.02-0.15-0.05-0.22-0.09L96.66,113.28z"/>
		</g>
	</g>
	<g id="mouth">
		<g>
			<path class="st5" d="M63.11,96.8c0,0,1.56,6.88,10.94,6.5s11.81-8,11.81-8l-5.56-1.69l-10.62,0.5L63.11,96.8z"/>
			<path class="st1" d="M63.77,97.14c0.06-0.09,0.1-0.22,0.1-0.33c0-0.05-0.02-0.14-0.02-0.13l0.01,0.02l0.03,0.09l0.07,0.18
				c0.05,0.12,0.1,0.25,0.16,0.37c0.11,0.25,0.25,0.49,0.38,0.72c0.29,0.46,0.6,0.91,0.98,1.31c0.73,0.81,1.62,1.46,2.61,1.93
				c1.97,0.96,4.3,1.18,6.56,0.98c2.26-0.17,4.47-0.83,6.29-2.12c1.83-1.23,3.36-3.1,4.2-5.09l0,0l0.5,0.95l-5.56-1.69l0.25,0.03
				l-10.62,0.5l0.25-0.06C67.92,95.64,65.89,96.39,63.77,97.14z M62.44,96.45c2.26-1.04,4.6-2.08,6.94-3.04
				c0.08-0.03,0.17-0.05,0.25-0.06l10.62-0.5c0.09,0,0.17,0.01,0.25,0.03l5.56,1.69l0.01,0c0.39,0.12,0.61,0.53,0.49,0.92
				l-0.01,0.02l0,0c-0.87,2.51-2.47,4.59-4.58,6.12c-2.08,1.56-4.66,2.32-7.18,2.54c-2.51,0.17-5.16-0.04-7.52-1.26
				c-1.17-0.6-2.24-1.42-3.08-2.44c-0.43-0.5-0.78-1.06-1.1-1.64c-0.15-0.29-0.3-0.59-0.41-0.9c-0.06-0.15-0.12-0.31-0.17-0.47
				l-0.08-0.24l-0.03-0.13l-0.01-0.03c0-0.01-0.03-0.12-0.03-0.18C62.36,96.74,62.39,96.57,62.44,96.45z"/>
		</g>
	</g>
	<g id="teeth">
		<g>
			<path class="st1" d="M65.97,100.12c-0.07-0.01-0.14-0.02-0.21,0c-0.03,0-0.08,0.02-0.09,0.02l0.02,0l0.07-0.02l0.14-0.03
				l0.27-0.06l0.53-0.12l1.06-0.21c0.7-0.15,1.41-0.28,2.12-0.38c1.42-0.22,2.85-0.4,4.3-0.45c2.88-0.09,5.71,0.08,8.59,0.17l0,0
				l-0.59,0.18c1.27-1.1,2.17-2.67,3.01-4.28l0.47,1.07l-6-1.62l0.22,0.03l-5.46,0.21c-0.91,0.01-1.82,0.1-2.72,0.2L69,95.1
				l0.21-0.05l-5.81,2.44l0.43-0.91c0.23,0.71,0.55,1.48,0.93,2.08c0.1,0.15,0.2,0.29,0.3,0.41l0.41,0.43l0.42,0.41l0.21,0.19
				l0.1,0.09l0.05,0.04l0.02,0.02l0.01,0.01l0,0C66.37,100.3,66.14,100.13,65.97,100.12z M65.75,101.6
				c-0.18-0.01-0.41-0.19-0.35-0.15l-0.01-0.01l-0.02-0.02l-0.04-0.03l-0.07-0.06l-0.13-0.11L64.87,101l-0.47-0.46l-0.45-0.48
				c-0.17-0.19-0.32-0.39-0.45-0.59c-0.26-0.4-0.46-0.8-0.64-1.21c-0.18-0.41-0.33-0.81-0.47-1.25c-0.12-0.37,0.07-0.76,0.42-0.9
				l0.01,0l5.81-2.44c0.07-0.03,0.14-0.05,0.21-0.05l2.74-0.28c0.91-0.1,1.83-0.19,2.74-0.21l5.5-0.21c0.08,0,0.15,0.01,0.22,0.03
				l6,1.62c0.4,0.11,0.64,0.51,0.53,0.91c-0.01,0.05-0.04,0.11-0.06,0.16c-0.87,1.64-1.82,3.37-3.36,4.72l-0.04,0.04
				c-0.16,0.14-0.36,0.18-0.55,0.14l0,0c-1.36-0.31-2.77-0.52-4.16-0.67c-1.4-0.16-2.81-0.23-4.2-0.19
				c-1.39,0.03-2.78,0.24-4.14,0.56c-0.68,0.17-1.35,0.36-2.02,0.57l-0.99,0.36l-0.49,0.19l-0.24,0.1l-0.12,0.05l-0.06,0.03
				l-0.01,0.01c-0.02,0.01-0.08,0.03-0.12,0.03C65.93,101.6,65.84,101.61,65.75,101.6z"/>
		</g>
		<line class="st10" x1="70.48" y1="99.86" x2="69.48" y2="94.86"/>
		<line class="st11" x1="-37.83" y1="287.48" x2="-39.39" y2="283.36"/>
		<line class="st11" x1="-24.33" y1="287.23" x2="-22.58" y2="282.42"/>
		<line class="st11" x1="144.67" y1="287.48" x2="143.11" y2="283.36"/>
		<line class="st11" x1="158.17" y1="287.23" x2="159.92" y2="282.42"/>
	</g>
	<g id="tooth">
		<g>
			<path class="st2" d="M74.83,100.11c-0.21-0.02-0.38-0.2-0.38-0.41l-0.13-5.65c0-0.13,0.05-0.25,0.15-0.33
				c0.08-0.06,0.17-0.1,0.27-0.1c0.03,0,0.05,0,0.08,0.01l4.69,0.89c0.21,0.04,0.35,0.23,0.34,0.43l-0.26,5.13
				c-0.01,0.11-0.06,0.22-0.14,0.3c-0.08,0.07-0.17,0.1-0.28,0.1C79.14,100.49,74.83,100.11,74.83,100.11z"/>
			<path class="st1" d="M74.73,94.05l4.69,0.89l-0.26,5.13l-4.29-0.37L74.73,94.05 M74.73,93.21c-0.2,0-0.39,0.07-0.54,0.2
				c-0.19,0.16-0.3,0.41-0.3,0.66l0.13,5.65c0.01,0.43,0.34,0.78,0.77,0.82l4.29,0.37c0.02,0,0.05,0,0.07,0
				c0.2,0,0.4-0.07,0.55-0.21c0.17-0.15,0.28-0.36,0.29-0.59l0.26-5.13c0.02-0.42-0.27-0.79-0.68-0.87l-4.69-0.89
				C74.84,93.21,74.78,93.21,74.73,93.21L74.73,93.21z"/>
		</g>
	</g>
	<g id="nose">
		<g>
			<path class="st1" d="M74.3,84.3c0.56,0.49,1.08,0.99,1.58,1.55c0.25,0.28,0.49,0.57,0.71,0.91c0.21,0.35,0.45,0.7,0.49,1.29
				c0.02,0.31-0.08,0.66-0.2,0.89c-0.13,0.24-0.27,0.43-0.41,0.61c-0.29,0.35-0.59,0.62-0.91,0.86c-0.66,0.45-1.34,0.76-2.13,0.84
				c-0.42,0.05-0.81-0.26-0.85-0.69c-0.03-0.26,0.08-0.51,0.27-0.67l0.05-0.04c0.52-0.44,1.13-0.74,1.69-1.03
				c0.28-0.14,0.57-0.27,0.79-0.41c0.24-0.14,0.36-0.3,0.37-0.33c0.03-0.13-0.07-0.43-0.2-0.7c-0.14-0.28-0.32-0.56-0.52-0.82
				c-0.4-0.54-0.88-1.06-1.37-1.51l-0.01-0.01c-0.2-0.18-0.21-0.49-0.03-0.69C73.8,84.14,74.11,84.13,74.3,84.3z"/>
		</g>
	</g>
	<g id="eyes">
		<circle class="st12" cx="62.67" cy="84.11" r="1.06"/>
		<circle class="st12" cx="81.54" cy="84.11" r="1.06"/>
	</g>
	<g id="eyebrows" class="st13">
		<g class="st14">
			<path class="st1" d="M-48.25,268.72c0.56-0.96,1.43-1.67,2.37-2.2c0.95-0.52,1.98-0.89,3.07-0.96c0.15-0.01,0.28,0.1,0.29,0.25
				c0.01,0.08-0.03,0.16-0.08,0.21c-0.77,0.75-1.54,1.35-2.27,1.97c-0.74,0.61-1.44,1.22-2.28,1.74l-0.02,0.01
				c-0.36,0.22-0.84,0.11-1.06-0.25C-48.39,269.26-48.39,268.96-48.25,268.72z"/>
		</g>
		<g class="st14">
			<path class="st1" d="M-23.94,265.74c1.01,0.31,1.98,0.73,2.95,1.19c0.48,0.24,0.94,0.52,1.4,0.82c0.46,0.3,0.91,0.63,1.31,1.02
				c0.4,0.37,0.41,1,0.04,1.39c-0.37,0.4-1,0.41-1.39,0.04l-0.01-0.01c-0.34-0.32-0.69-0.65-1.05-0.96c-0.37-0.32-0.76-0.6-1.16-0.9
				c-0.79-0.61-1.65-1.14-2.5-1.72c-0.22-0.15-0.28-0.45-0.13-0.68C-24.36,265.75-24.13,265.68-23.94,265.74z"/>
		</g>
	</g>
	<g id="moustache">
		<g>
			<path class="st9" d="M47.73,92.05c0,0,2.75,4,11.5,2.56s7-3.19,9.69-3.44s2.56,1.44,5.31,1.31s2.94-2,5.44-2.19
				c2.56-0.19,7,3.81,12.06,2.25s8.44-5.31,8.44-5.31s-2.44,6.44-8.5,7.81c-5.91,1.34-13.88,0-17.19,0.19s-9.06,2.88-16,2.38
				C51.54,97.11,49.54,94.55,47.73,92.05z"/>
			<path class="st1" d="M48.16,92.66c0.1-0.06,0.28-0.21,0.33-0.48c0.05-0.27-0.06-0.47-0.13-0.55l0.03,0.03l0.05,0.06l0.12,0.13
				c0.09,0.09,0.18,0.18,0.28,0.26c0.19,0.17,0.41,0.33,0.63,0.48c0.45,0.28,0.92,0.55,1.44,0.74c1.01,0.41,2.12,0.64,3.23,0.75
				c2.25,0.21,4.54-0.09,6.82-0.57c1.14-0.23,2.26-0.52,3.31-0.9c0.53-0.19,1.02-0.42,1.48-0.69c0.47-0.27,0.82-0.62,1.47-1.02
				c0.67-0.4,1.42-0.49,2.06-0.51c0.67-0.03,1.43,0.1,2.07,0.42c0.63,0.32,1.05,0.62,1.5,0.76c0.44,0.14,0.95,0.18,1.47,0.14
				c1.07-0.04,1.77-0.51,2.82-1.29c0.53-0.37,1.21-0.69,1.9-0.81c0.34-0.06,0.68-0.09,1.07-0.07c0.36,0.03,0.71,0.09,1.02,0.18
				c1.26,0.35,2.31,0.87,3.4,1.3c1.08,0.43,2.15,0.79,3.24,0.98c1.09,0.19,2.18,0.19,3.23-0.05c1.04-0.24,2.14-0.69,3.14-1.19
				c2.02-1.02,3.93-2.42,5.48-4.02l0.01-0.01c0.28-0.31,0.75-0.33,1.06-0.06c0.24,0.21,0.3,0.54,0.2,0.82
				c-0.47,1.25-1.08,2.33-1.82,3.38c-0.73,1.04-1.6,2.01-2.61,2.84c-1.01,0.82-2.17,1.49-3.41,1.95c-1.29,0.44-2.51,0.63-3.76,0.8
				c-2.49,0.31-4.97,0.27-7.42,0.17c-2.42-0.09-4.91-0.35-7.15-0.3c-1.04,0.04-2.19,0.32-3.35,0.6c-1.16,0.28-2.35,0.59-3.55,0.86
				c-2.4,0.53-4.9,0.94-7.42,0.9c-1.26,0-2.52-0.11-3.76-0.3c-1.25-0.19-2.5-0.47-3.71-0.94c-1.21-0.48-2.37-1.16-3.36-2.03
				c-0.48-0.44-0.93-0.92-1.33-1.42c-0.19-0.25-0.39-0.5-0.57-0.76l-0.14-0.19l-0.06-0.08c0.01,0.01,0.03,0.02,0.07,0.04
				c0.07,0.03,0.23,0.05,0.37-0.03C48.05,92.91,48.13,92.78,48.16,92.66z M47.3,91.43c0.12,0,0.29-0.01,0.53,0.04
				c0.23,0.04,0.48,0.18,0.64,0.34c0.08,0.08,0.15,0.15,0.2,0.22l0.08,0.1l0.14,0.17c0.18,0.23,0.37,0.44,0.56,0.66
				c0.38,0.43,0.78,0.81,1.21,1.17c0.86,0.69,1.84,1.21,2.9,1.57c2.12,0.72,4.51,0.96,6.81,0.92c2.32-0.05,4.64-0.4,6.95-0.95
				c1.16-0.27,2.31-0.58,3.5-0.88c1.19-0.29,2.4-0.63,3.79-0.69c2.6-0.03,4.94,0.26,7.35,0.37c2.39,0.13,4.77,0.15,7.09-0.05
				c1.15-0.12,2.33-0.29,3.35-0.61c1.03-0.35,2.01-0.88,2.9-1.55c1.78-1.33,3.22-3.28,4.17-5.29l1.26,0.77l-0.02,0.02
				c-1.74,1.8-3.71,3.23-5.91,4.35c-1.11,0.55-2.22,1.01-3.48,1.31c-1.26,0.29-2.58,0.29-3.82,0.07c-2.49-0.4-4.7-1.68-6.77-2.3
				c-0.98-0.3-1.9-0.09-2.76,0.49c-0.44,0.3-0.94,0.71-1.57,1.02c-0.62,0.31-1.33,0.48-1.99,0.52c-0.66,0.04-1.35,0.01-2.04-0.22
				c-0.69-0.23-1.24-0.63-1.67-0.83c-0.43-0.21-0.86-0.29-1.38-0.27c-0.53,0.02-1,0.09-1.35,0.31c-0.36,0.21-0.89,0.68-1.44,1.01
				c-0.56,0.34-1.14,0.6-1.73,0.82c-1.17,0.43-2.35,0.73-3.53,0.96c-2.33,0.49-4.8,0.83-7.27,0.59c-1.23-0.12-2.47-0.37-3.65-0.85
				c-0.6-0.22-1.16-0.54-1.71-0.89c-0.27-0.19-0.53-0.38-0.78-0.6c-0.13-0.11-0.25-0.23-0.37-0.35l-0.18-0.19l-0.09-0.11l-0.04-0.05
				c-0.08-0.1-0.2-0.31-0.16-0.59C47.04,91.68,47.21,91.5,47.3,91.43z"/>
		</g>
	</g>
	<g id="hair">
		<g>
			<path class="st9" d="M52.61,80.61c0,0,1.12-9,5.75-9.75s13.87,6,13.87,6l-1.25-5.5c0,0,3.75,2.12,5.75,3.25s5,1.38,5,1.38
				s-0.75-4.12-1.25-5s-2.25-2.12-2.25-2.12s4.62,3.12,10.75,1.62s8.5-4.62,8.5-4.62s-7-1.75-8.75-2.88s-4.5-1.62-4.62-4.38
				s1.5-5.75,1.5-5.75s-4.5,4.62-12.5,6.5s-17.95,2.42-20.87,5.88C49.48,68.48,50.49,74.07,52.61,80.61z"/>
			<path class="st1" d="M52.54,79.86c-0.12-0.01-0.32,0.03-0.46,0.17c-0.15,0.12-0.21,0.34-0.21,0.37l0-0.11l0.01-0.23l0.03-0.45
				c0.03-0.29,0.05-0.59,0.1-0.88c0.08-0.59,0.18-1.17,0.32-1.76c0.27-1.16,0.64-2.33,1.21-3.45c0.56-1.12,1.32-2.24,2.53-3.08
				c0.32-0.19,0.65-0.36,0.98-0.52c0.36-0.11,0.73-0.21,1.1-0.31c0.36-0.03,0.71-0.05,1.07-0.07c0.34,0.01,0.67,0.06,1,0.09
				c2.57,0.42,4.69,1.5,6.73,2.64c2.03,1.17,3.92,2.49,5.73,3.97l-1.17,0.77l-1.25-5.5c-0.09-0.4,0.16-0.81,0.57-0.9
				c0.19-0.04,0.38-0.01,0.54,0.08l0,0c1.75,0.9,3.48,1.86,5.18,2.84l0.64,0.36c0.19,0.1,0.38,0.2,0.59,0.29
				c0.41,0.18,0.84,0.33,1.29,0.46c0.89,0.25,1.84,0.45,2.75,0.57l-0.8,0.88l0,0c-0.25-1.33-0.52-2.69-0.88-3.96
				c-0.08-0.3-0.2-0.65-0.29-0.8c-0.11-0.18-0.32-0.42-0.54-0.64c-0.45-0.44-0.98-0.87-1.5-1.25l0,0c-0.33-0.24-0.4-0.7-0.17-1.03
				c0.2-0.27,0.54-0.37,0.84-0.27l0.18,0.06c1.5,0.52,3.13,0.94,4.69,1.14c1.58,0.2,3.17,0.23,4.72-0.08
				c1.57-0.29,3.2-0.76,4.69-1.41c1.49-0.62,2.98-1.49,4.12-2.49l0,0l0.42,1.18c-1.79-0.46-3.56-0.95-5.33-1.51
				c-0.88-0.28-1.76-0.58-2.65-0.96c-0.23-0.11-0.44-0.19-0.68-0.33L88.3,63.6l-0.26-0.16c-0.37-0.21-0.77-0.4-1.18-0.6
				c-0.82-0.41-1.74-0.86-2.5-1.68c-0.37-0.41-0.66-0.93-0.83-1.47c-0.17-0.55-0.18-1.1-0.18-1.59c0.09-2.02,0.72-3.83,1.59-5.57
				l0.01-0.02l1.2,0.88c-1.64,1.65-3.46,2.91-5.42,4.03c-1.96,1.09-4.03,2-6.19,2.61c-4.32,1.18-8.63,1.79-12.84,2.67
				c-2.09,0.44-4.2,0.9-6.05,1.69c-0.93,0.38-1.78,0.87-2.34,1.46c-0.59,0.61-1.01,1.43-1.25,2.32c-0.48,1.81-0.29,3.89,0.06,5.94
				c0.16,1.03,0.37,2.07,0.59,3.11l0.32,1.58c0.02,0.12,0.06,0.3,0.07,0.36c-0.01,0.04-0.04,0.06-0.11,0.1
				C52.84,79.3,52.59,79.54,52.54,79.86z M52.68,81.36c-0.22-0.2-0.63-0.47-0.94-0.94c-0.15-0.22-0.26-0.46-0.35-0.68l-0.17-0.42
				c-0.21-0.51-0.4-1.03-0.58-1.56c-0.35-1.05-0.66-2.13-0.88-3.24c-0.22-1.11-0.38-2.25-0.4-3.42c-0.03-1.17,0.06-2.38,0.39-3.58
				c0.33-1.2,0.92-2.38,1.85-3.33c0.96-0.97,2.06-1.54,3.14-1.98c2.17-0.9,4.35-1.34,6.51-1.78c4.31-0.83,8.65-1.32,12.75-2.35
				c4.03-1.06,7.97-3.03,11.07-5.75l0.04-0.04c0.31-0.27,0.78-0.24,1.06,0.07c0.21,0.24,0.24,0.58,0.1,0.85l0,0.01
				c-0.76,1.52-1.35,3.26-1.41,4.9c-0.03,0.84,0.14,1.48,0.62,2.02c0.48,0.54,1.23,0.94,2.04,1.34c0.41,0.2,0.83,0.4,1.26,0.65
				l0.32,0.2l0.26,0.14c0.16,0.09,0.37,0.18,0.56,0.27c0.8,0.34,1.65,0.63,2.51,0.91c1.72,0.54,3.48,1.03,5.24,1.48
				c0.4,0.1,0.65,0.51,0.54,0.91c-0.02,0.08-0.06,0.16-0.1,0.23l-0.02,0.04l-0.01,0.01c-1.16,1.65-2.65,2.74-4.28,3.66
				c-1.64,0.91-3.36,1.53-5.21,1.95c-0.93,0.21-1.89,0.28-2.85,0.32c-0.96-0.03-1.92-0.07-2.84-0.3c-1.87-0.42-3.6-1.17-5.08-2.47
				l0.86-1.23l0,0c0.59,0.44,1.14,0.87,1.68,1.4c0.27,0.27,0.53,0.54,0.78,0.95c0.24,0.46,0.31,0.78,0.43,1.13
				c0.39,1.39,0.65,2.73,0.92,4.11l0,0c0.08,0.4-0.17,0.79-0.57,0.87c-0.07,0.01-0.14,0.02-0.2,0.01l-0.03,0
				c-1.05-0.08-2.05-0.24-3.06-0.52c-0.5-0.14-1-0.3-1.5-0.51c-0.25-0.1-0.49-0.22-0.74-0.35l-0.65-0.36
				c-1.72-0.96-3.43-1.94-5.11-2.98l0,0l1.1-0.82l1.25,5.5c0.09,0.4-0.16,0.8-0.56,0.9c-0.2,0.04-0.39,0.01-0.55-0.09l-0.06-0.04
				c-1.91-1.15-3.89-2.27-5.88-3.23c-1.98-0.96-4.07-1.85-6.02-2.12c-0.23-0.01-0.48-0.05-0.7-0.06l-0.63,0.04
				c-0.18,0.06-0.36,0.11-0.55,0.16c-0.17,0.1-0.34,0.2-0.52,0.29c-0.7,0.45-1.29,1.25-1.81,2.13c-0.51,0.89-0.94,1.87-1.32,2.89
				c-0.19,0.51-0.37,1.03-0.53,1.55l-0.25,0.79l-0.12,0.4l-0.06,0.2l-0.03,0.1c-0.01,0.07-0.07,0.32-0.22,0.47
				C53,81.25,52.8,81.33,52.68,81.36z"/>
		</g>
		<g>
			<path class="st1" d="M82.17,65.75c1.2,0.4,2.38,0.72,3.57,0.85c1.19,0.12,2.38,0.1,3.58-0.04c1.2-0.14,2.4-0.37,3.63-0.61
				c1.23-0.23,2.47-0.49,3.73-0.65c0.41-0.05,0.79,0.24,0.84,0.65c0.05,0.36-0.17,0.69-0.49,0.81c-1.2,0.43-2.43,0.77-3.68,1.07
				c-1.26,0.3-2.55,0.52-3.89,0.58c-1.33,0.06-2.71-0.03-4.01-0.4c-1.3-0.35-2.52-0.94-3.58-1.71c-0.14-0.1-0.18-0.3-0.07-0.44
				C81.89,65.74,82.04,65.7,82.17,65.75z"/>
		</g>
	</g>
</g>
</svg>
