<svg id="logo_1glass" xmlns="http://www.w3.org/2000/svg" viewBox="0 0 125.17 145.75"><defs><style>.cls-1{fill:#f0efe8;}.cls-2,.cls-3{fill:#f2f0e9;}.cls-2,.cls-5,.cls-7{stroke:#444140;stroke-linejoin:round;}.cls-2{stroke-width:1.5px;}.cls-4,.cls-7{fill:#444140;}.cls-5,.cls-6{fill:#ffae3c;}.cls-5{stroke-linecap:round;}.cls-5,.cls-7{stroke-width:2px;}</style></defs><title>mockup3</title><rect class="cls-1" width="125.17" height="145.75"/><path class="cls-2" d="M45.36,72.18s-1.94-1.69-3-.81S41.61,75,43,76.06a3.16,3.16,0,0,0,3.19.06Z"/><path class="cls-2" d="M84.39,67.62S86,66,87.61,66.74s1.5,3.82.25,4.82a8.59,8.59,0,0,1-3.25,1.37Z"/><path class="cls-3" d="M85.61,81.12a80.53,80.53,0,0,1-.5-9.25c.12-3.63.25-7.88-.63-10.38s-4.37-6.62-4.37-6.62l-13.5-2.75L51.86,54.37l-7.13,6.5.13,6.5a59.14,59.14,0,0,1,.75,5.87c.25,3.25.37,9.38.37,9.38Z"/><path class="cls-4" d="M85,80.63a.59.59,0,0,0-.19.42v0l0-.11,0-.21-.07-.43-.13-.86-.23-1.74c-.15-1.15-.27-2.31-.34-3.49s-.08-2.4-.07-3.53,0-2.28,0-3.4c-.08-2.23-.17-4.53-1-6.2-.93-1.87-2.24-3.78-3.36-5.76h0l.43.24-13.5-2.75h.26L52,55.11l.39-.19-7.12,6.5h0l.24-.56q.24,3.24.37,6.49l0-.17c.26,1.3.48,2.56.63,3.86a38.6,38.6,0,0,1,.31,3.86,49.49,49.49,0,0,1,0,7.7h0L46,81.87C59,81.37,71.94,81,85,80.63Zm1.13,1C72.85,82.25,59.4,82.87,46,83.37l-.68,0-.1-.75h0A49.74,49.74,0,0,1,44.58,75c0-1.27-.09-2.52-.23-3.76s-.28-2.51-.47-3.72v-.17q0-3.26.11-6.51v-.37l.24-.19h0l7.12-6.49.17-.16.22,0,14.75-2.25.13,0,.14,0,13.5,2.75.24,0,.18.2h0A20.42,20.42,0,0,1,85.22,60a8.14,8.14,0,0,1,.72,1.87,14.49,14.49,0,0,1,.34,1.87,29.32,29.32,0,0,1,.18,3.6c0,2.37-.25,4.68-.25,6.9,0,1.13,0,2.27,0,3.41l.05,1.72,0,.86,0,.43v.47A.81.81,0,0,1,86.17,81.61Z"/><path class="cls-3" d="M37.81,98.87s10.34,7.83,28.34,7.5a42.23,42.23,0,0,0,28.66-12,37,37,0,0,1-6.5-6.83,21.73,21.73,0,0,1-3-7.5h-19L46,82.62a25.57,25.57,0,0,1-2.81,8.94A59.25,59.25,0,0,1,37.81,98.87Z"/><path class="cls-4" d="M38.56,98.79a.52.52,0,0,0-.12-.39l-.06-.06,0,0,.05,0,.2.11.4.24c.26.15.54.29.82.44.56.28,1.11.57,1.68.83,1.13.54,2.29,1,3.47,1.44a57,57,0,0,0,7.21,2.07,58.16,58.16,0,0,0,14.88,1.19,43.73,43.73,0,0,0,14.38-3.22,48.1,48.1,0,0,0,12.77-7.62h0l.09,1.1c-1.17-1-2.26-2-3.32-3a30.09,30.09,0,0,1-2.94-3.42,19.5,19.5,0,0,1-2.2-4,23.42,23.42,0,0,1-1.32-4.36l.74.63H66.41L46.08,83.36h0l.65-.66a27.23,27.23,0,0,1-.89,4.68A19.35,19.35,0,0,1,44,91.84a41.66,41.66,0,0,1-2.64,3.9c-.47.62-1,1.24-1.45,1.84l-.75.9-.39.44-.19.22-.1.11,0,.06h0a.54.54,0,0,0,.09-.15A.64.64,0,0,0,38.56,98.79ZM37.07,99a.84.84,0,0,1,.09-.43l.12-.18v0l.05,0,.09-.11.17-.22.36-.45.69-.91c.46-.6.92-1.21,1.36-1.83.88-1.24,1.75-2.49,2.5-3.78a20.11,20.11,0,0,0,1.71-4.07,34.87,34.87,0,0,0,1-4.36v0a.74.74,0,0,1,.65-.62h0l20.33-2.59H85.31a.74.74,0,0,1,.74.61h0a21.84,21.84,0,0,0,1.23,4,17.83,17.83,0,0,0,2,3.69,28.52,28.52,0,0,0,2.8,3.24c1,1,2.09,2,3.18,2.9a.76.76,0,0,1,.11,1.07h0v0h0a31.93,31.93,0,0,1-5.83,5.38,38.69,38.69,0,0,1-6.85,4,40,40,0,0,1-15.44,3.65,53.29,53.29,0,0,1-15.66-1.74,47.16,47.16,0,0,1-7.42-2.66c-1.2-.55-2.37-1.15-3.5-1.81-.57-.33-1.14-.67-1.68-1-.28-.19-.55-.37-.82-.57l-.4-.3-.2-.16-.19-.15A1.08,1.08,0,0,1,37.07,99Z"/><path class="cls-4" d="M45.2,102.27a2.47,2.47,0,0,1,.91-1.26c.39-.3.77-.62,1.16-.93.76-.64,1.53-1.28,2.25-2a29.8,29.8,0,0,0,4-4.59.35.35,0,0,1,.59.36,40.32,40.32,0,0,1-3.27,5.39,22.82,22.82,0,0,1-2.07,2.44c-.37.38-.77.74-1.17,1.1a2.37,2.37,0,0,1-1.5.66.91.91,0,0,1-1-.86.8.8,0,0,1,0-.31Z"/><path class="cls-4" d="M54.72,104.74c-.29-1.25.44-1.66.88-2.33s.92-1.26,1.35-1.93c.89-1.32,1.66-2.74,2.56-4.2a.34.34,0,0,1,.45-.11.35.35,0,0,1,.16.29,15.62,15.62,0,0,1-1,5.1A17.84,17.84,0,0,1,58,103.94c-.48.73-.73,1.67-2.05,1.73a1.16,1.16,0,0,1-1.17-.89Z"/><path class="cls-4" d="M66.1,106c-.51-.5-.51-.79-.4-1.06s.18-.56.26-.84c.14-.57.31-1.13.43-1.71.28-1.15.47-2.34.73-3.6h0a.56.56,0,0,1,.65-.44.57.57,0,0,1,.41.34,10.77,10.77,0,0,1,.69,4,12.9,12.9,0,0,1-.18,2.05c-.06.33-.13.67-.2,1s-.25.65-1,.76a1.64,1.64,0,0,1-1.38-.43Z"/><path class="cls-4" d="M79.18,103.61c-.94.09-1.05-.39-1.25-.78s-.36-.8-.52-1.21a16.83,16.83,0,0,1-.75-2.48,17.85,17.85,0,0,1-.41-5,.42.42,0,0,1,.44-.39.43.43,0,0,1,.36.26c.65,1.52,1.22,3,1.86,4.44.31.72.65,1.41,1,2.08.17.34.36.66.55,1s.5.55,0,1.33l0,.08A1.63,1.63,0,0,1,79.18,103.61Z"/><path class="cls-4" d="M88.79,99.79a17,17,0,0,1-4.65-3.61,27.48,27.48,0,0,1-3.33-4.57.42.42,0,0,1,.68-.48c2.34,2.76,5.15,5.17,8.35,6.15a1.36,1.36,0,0,1,.9,1.71,1.35,1.35,0,0,1-1.7.9l-.22-.08Z"/><path class="cls-5" d="M63.36,86.66c2.33-.83,5.79.29,6,.46"/><line class="cls-6" x1="49.98" y1="75.74" x2="30.36" y2="97.62"/><path class="cls-4" d="M50.73,76.41c-1.79,1.69-3.47,3.47-5.12,5.28s-3.26,3.66-4.84,5.54S37.66,91,36.17,93s-2.92,4-4.24,6.06a2.15,2.15,0,0,1-3.65-2.27,2,2,0,0,1,.5-.55c1.95-1.54,3.78-3.19,5.57-4.88s3.52-3.42,5.21-5.19,3.37-3.56,5-5.4,3.21-3.71,4.7-5.66a1,1,0,1,1,1.59,1.21Z"/><path class="cls-4" d="M66.43,70.82A19.14,19.14,0,0,1,68,72.36a9.21,9.21,0,0,1,.71.91,2.77,2.77,0,0,1,.5,1.3,1.66,1.66,0,0,1-.21.88,4.31,4.31,0,0,1-.41.61,4.68,4.68,0,0,1-3,1.7A.77.77,0,0,1,65,76.4l0,0a9.1,9.1,0,0,1,1.68-1,8.49,8.49,0,0,0,.8-.41,1,1,0,0,0,.37-.33,1.47,1.47,0,0,0-.2-.69,5.7,5.7,0,0,0-.52-.83,10.94,10.94,0,0,0-1.38-1.51h0a.49.49,0,0,1,.66-.72Z"/><circle class="cls-7" cx="73.67" cy="70.62" r="1.06"/><path class="cls-4" d="M70.85,67.08c.91-.47,1.84-.88,2.69-1.4.43-.25.86-.48,1.26-.75s.79-.55,1.16-.83a1,1,0,1,1,1.19,1.57h0a9.36,9.36,0,0,1-1.42.85,15.1,15.1,0,0,1-1.5.65,21.1,21.1,0,0,1-3.07.82.48.48,0,0,1-.56-.4A.49.49,0,0,1,70.85,67.08Z"/><path class="cls-3" d="M39.86,78.56s2.75,4,11.5,2.56,7-3.19,9.68-3.44,2.57,1.44,5.32,1.31,2.93-2,5.43-2.18,7,3.81,12.07,2.25a20.9,20.9,0,0,0,8.43-5.32s-2.43,6.44-8.5,7.82c-5.91,1.34-13.87,0-17.18.18s-9.07,2.88-16,2.38S41.67,81.06,39.86,78.56Z"/><path class="cls-4" d="M40.29,79.17a.68.68,0,0,0,.32-.48.69.69,0,0,0-.13-.55l0,0,.05.06.12.13a3.45,3.45,0,0,0,.28.26,5.82,5.82,0,0,0,.63.48,8.53,8.53,0,0,0,1.44.75,11.61,11.61,0,0,0,3.23.74A22.67,22.67,0,0,0,53.09,80a24.07,24.07,0,0,0,3.31-.9,8,8,0,0,0,1.47-.7c.48-.26.82-.62,1.47-1a4.36,4.36,0,0,1,2.07-.51,4.29,4.29,0,0,1,2.06.42,12.48,12.48,0,0,0,1.5.76,4.08,4.08,0,0,0,1.46.15A4.91,4.91,0,0,0,69.25,77a5,5,0,0,1,1.9-.81,4.13,4.13,0,0,1,1.07-.07,4.62,4.62,0,0,1,1,.18,36.07,36.07,0,0,1,3.4,1.29,15.63,15.63,0,0,0,3.24,1,8.11,8.11,0,0,0,3.22,0,14.73,14.73,0,0,0,3.15-1.19,20.58,20.58,0,0,0,5.47-4l0,0A.75.75,0,0,1,93,74a14.8,14.8,0,0,1-1.81,3.38,14.61,14.61,0,0,1-2.61,2.84,11.92,11.92,0,0,1-3.41,2,19.3,19.3,0,0,1-3.76.8,45,45,0,0,1-7.42.17c-2.43-.09-4.91-.35-7.15-.3a18,18,0,0,0-3.35.6c-1.16.28-2.35.59-3.55.85a32.2,32.2,0,0,1-7.42.9,24.87,24.87,0,0,1-3.76-.3A17.41,17.41,0,0,1,45,84a11.56,11.56,0,0,1-3.36-2,13.65,13.65,0,0,1-1.33-1.42c-.2-.25-.4-.51-.57-.76l-.14-.19,0-.08.06,0a.52.52,0,0,0,.38,0A.55.55,0,0,0,40.29,79.17Zm-.87-1.23A4.25,4.25,0,0,1,40,78a1.47,1.47,0,0,1,.64.34l.21.22.08.1.14.17c.18.24.37.45.56.67a11.9,11.9,0,0,0,1.2,1.16,9.55,9.55,0,0,0,2.91,1.58,20.58,20.58,0,0,0,6.81.92,33.78,33.78,0,0,0,7-1c1.16-.27,2.31-.58,3.5-.88a18.93,18.93,0,0,1,3.78-.69c2.6,0,4.94.26,7.35.37a50.75,50.75,0,0,0,7.09-.06,16.85,16.85,0,0,0,3.35-.6,10.19,10.19,0,0,0,2.9-1.56,14.22,14.22,0,0,0,4.17-5.29l1.26.77,0,0a22,22,0,0,1-5.91,4.35,16.12,16.12,0,0,1-3.48,1.31,9.64,9.64,0,0,1-3.82.07c-2.49-.4-4.7-1.68-6.77-2.3a3.09,3.09,0,0,0-2.76.49,12.25,12.25,0,0,1-1.57,1,5,5,0,0,1-2,.52,5.39,5.39,0,0,1-2.05-.22,11.76,11.76,0,0,1-1.67-.83,2.76,2.76,0,0,0-1.38-.27,2.89,2.89,0,0,0-1.35.31c-.36.21-.88.68-1.44,1a10,10,0,0,1-1.73.81,22.84,22.84,0,0,1-3.53,1,24.14,24.14,0,0,1-7.27.6,13.43,13.43,0,0,1-3.66-.85,9.5,9.5,0,0,1-1.7-.89,9.12,9.12,0,0,1-.79-.6l-.36-.35-.18-.19-.09-.11-.05,0a.81.81,0,0,1,.13-1.12Z"/><path class="cls-3" d="M44.73,67.12s1.13-9,5.75-9.75,13.88,6,13.88,6l-1.25-5.5,5.75,3.25a14.68,14.68,0,0,0,5,1.37,32,32,0,0,0-1.25-5,10.44,10.44,0,0,0-2.25-2.12A14.39,14.39,0,0,0,81.11,57c6.12-1.5,8.5-4.62,8.5-4.62s-7-1.75-8.75-2.88-4.5-1.62-4.63-4.37a13.11,13.11,0,0,1,1.5-5.75,27.37,27.37,0,0,1-12.5,6.5c-8,1.87-18,2.42-20.87,5.87C41.61,55,42.61,60.58,44.73,67.12Z"/><path class="cls-4" d="M44.66,66.37a.62.62,0,0,0-.46.17.67.67,0,0,0-.21.37v-.34l0-.45c0-.29,0-.59.1-.88A17.18,17.18,0,0,1,45.66,60,7.91,7.91,0,0,1,48.19,57c.32-.19.65-.36,1-.52s.73-.22,1.1-.31l1.07-.07c.34,0,.66.06,1,.09a20.71,20.71,0,0,1,6.73,2.64,42.69,42.69,0,0,1,5.73,4l-1.18.78L62.37,58a.76.76,0,0,1,.57-.9.77.77,0,0,1,.54.08h0c1.75.9,3.47,1.85,5.18,2.84l.64.36a5.23,5.23,0,0,0,.58.29,11,11,0,0,0,1.29.47,20,20,0,0,0,2.75.57l-.8.88h0c-.25-1.33-.53-2.7-.88-4a4.82,4.82,0,0,0-.29-.81,3.47,3.47,0,0,0-.53-.63A14,14,0,0,0,69.92,56h0a.74.74,0,0,1,.67-1.3l.19.07a23.77,23.77,0,0,0,4.69,1.14,14.94,14.94,0,0,0,4.72-.08,21.81,21.81,0,0,0,4.69-1.41A15,15,0,0,0,89,51.92h0l.41,1.18c-1.79-.46-3.56-1-5.32-1.51a27.2,27.2,0,0,1-2.65-1c-.23-.11-.45-.19-.68-.32l-.35-.2L80.16,50c-.36-.21-.77-.4-1.18-.6a8,8,0,0,1-2.5-1.69,3.87,3.87,0,0,1-.82-1.47,5.25,5.25,0,0,1-.18-1.59A13.83,13.83,0,0,1,77.06,39v0l1.2.88a24.79,24.79,0,0,1-5.42,4,28.6,28.6,0,0,1-6.19,2.61C62.35,47.72,58,48.32,53.82,49.2a32.81,32.81,0,0,0-6,1.69,6.78,6.78,0,0,0-2.34,1.46,5.33,5.33,0,0,0-1.25,2.32,14.65,14.65,0,0,0,.06,5.93c.16,1,.37,2.07.59,3.12l.32,1.57c0,.12.06.3.06.36s0,.07-.1.1A.89.89,0,0,0,44.66,66.37Zm.14,1.5a4.83,4.83,0,0,1-.94-.94,3.66,3.66,0,0,1-.35-.68l-.16-.42c-.22-.51-.4-1-.59-1.55A29.17,29.17,0,0,1,41.88,61a18.37,18.37,0,0,1-.39-3.42A12.24,12.24,0,0,1,41.87,54a7.76,7.76,0,0,1,1.85-3.33,8.85,8.85,0,0,1,3.14-2A34.5,34.5,0,0,1,53.37,47c4.31-.83,8.65-1.32,12.75-2.35a27.56,27.56,0,0,0,11.07-5.75l0,0a.75.75,0,0,1,1.16.92h0A12.15,12.15,0,0,0,77,44.64a2.69,2.69,0,0,0,.62,2,6.75,6.75,0,0,0,2,1.34c.41.2.84.41,1.27.65l.32.2.26.14c.16.09.37.18.55.27.8.34,1.65.63,2.51.9,1.72.55,3.48,1,5.24,1.48a.76.76,0,0,1,.54.92.94.94,0,0,1-.1.23l0,0h0a12.68,12.68,0,0,1-4.28,3.67,19.24,19.24,0,0,1-5.21,1.94,15.17,15.17,0,0,1-2.85.32A13,13,0,0,1,75,58.47,11.22,11.22,0,0,1,69.94,56l.85-1.23h0a14.84,14.84,0,0,1,1.68,1.4,4.83,4.83,0,0,1,.78,1,5.71,5.71,0,0,1,.43,1.14c.39,1.39.65,2.73.91,4.11h0a.73.73,0,0,1-.57.87.45.45,0,0,1-.2,0h0a16.47,16.47,0,0,1-3.05-.51,11.57,11.57,0,0,1-1.5-.52,7.12,7.12,0,0,1-.74-.35l-.65-.36c-1.73-1-3.44-1.94-5.11-3h0l1.1-.82,1.25,5.5A.75.75,0,0,1,64,64l-.06,0C62,62.82,60,61.71,58,60.74a21.25,21.25,0,0,0-6-2.11c-.23,0-.48-.06-.7-.06l-.63,0-.55.16-.52.28a6.31,6.31,0,0,0-1.81,2.13,19.56,19.56,0,0,0-1.32,2.89c-.19.51-.37,1-.53,1.56l-.25.79-.11.4-.06.19,0,.1a1,1,0,0,1-.22.47A.87.87,0,0,1,44.8,67.87Z"/><path class="cls-4" d="M74.29,52.26a18,18,0,0,0,3.57.85,16.49,16.49,0,0,0,3.58,0c1.2-.14,2.4-.38,3.63-.61s2.47-.49,3.74-.65a.75.75,0,0,1,.84.65.77.77,0,0,1-.49.81,35.48,35.48,0,0,1-3.69,1.07,20.63,20.63,0,0,1-3.88.58,12.09,12.09,0,0,1-4-.4A11.15,11.15,0,0,1,74,52.82a.33.33,0,0,1-.07-.45A.31.31,0,0,1,74.29,52.26Z"/><ellipse class="cls-3" cx="55.52" cy="69.91" rx="7.17" ry="6.92"/><path class="cls-4" d="M61.61,69.91A5.87,5.87,0,0,0,60,65.6a6.46,6.46,0,0,0-9.08-.23,5.95,5.95,0,0,0,.18,8.9,6.44,6.44,0,0,0,4.47,1.55A6.34,6.34,0,0,0,61.61,69.91Zm2.16,0a7.52,7.52,0,0,1-2.42,5.78,8.41,8.41,0,0,1-5.83,2.15A8.26,8.26,0,0,1,50,75.42a7.52,7.52,0,0,1,.18-10.83,8.29,8.29,0,0,1,5.38-2.22,8.18,8.18,0,0,1,5.61,2A7.66,7.66,0,0,1,63.77,69.91Z"/></svg>