<?xml version="1.0" encoding="utf-8"?>
<!-- Generator: Adobe Illustrator 24.0.1, SVG Export Plug-In . SVG Version: 6.00 Build 0)  -->
<svg version="1.1" id="logo_x5F_1glass_x5F_cool" xmlns="http://www.w3.org/2000/svg" xmlns:xlink="http://www.w3.org/1999/xlink"
	 x="0px" y="0px" viewBox="0 0 125.17 145.75" style="enable-background:new 0 0 125.17 145.75;" xml:space="preserve">
<style type="text/css">
	.st0{fill:#F2F0E9;}
	.st1{fill:#F2F0E9;stroke:#444140;stroke-width:1.5;stroke-linejoin:round;stroke-miterlimit:10;}
	.st2{fill:#444140;}
	.st3{fill:#444140;stroke:#43403F;stroke-width:1.1473;stroke-linecap:round;stroke-linejoin:round;stroke-miterlimit:10;}
	.st4{fill:none;stroke:#3EB5F1;stroke-linecap:round;stroke-linejoin:round;stroke-miterlimit:10;}
	.st5{fill:none;stroke:#43403F;stroke-width:2;stroke-linecap:round;stroke-linejoin:round;stroke-miterlimit:10;}
</style>
<rect class="st0" width="125.17" height="145.75"/>
<g id="ears_copy_5">
</g>
<g id="face_copy_5">
</g>
<g id="beard_copy_5">
</g>
<g id="teeth_copy_5">
</g>
<g id="nose_copy_5">
</g>
<g id="moustache_copy_5">
</g>
<g id="hair_copy_5">
	<g>
		<g>
			<path class="st1" d="M41.63,72.19c0,0-1.94-1.69-3-0.81s-0.75,3.62,0.62,4.69s3.19,0.06,3.19,0.06L41.63,72.19z"/>
			<path class="st1" d="M80.66,67.63c0,0,1.66-1.62,3.22-0.88s1.5,3.81,0.25,4.81s-3.25,1.38-3.25,1.38L80.66,67.63z"/>
		</g>
		<g>
			<path class="st0" d="M81.88,81.13c0,0-0.62-5.62-0.5-9.25S81.63,64,80.76,61.5s-4.38-6.62-4.38-6.62l-13.5-2.75l-14.75,2.25
				l-7.12,6.5l0.12,6.5c0,0,0.5,2.62,0.75,5.88s0.38,9.38,0.38,9.38L81.88,81.13z"/>
			<path class="st2" d="M81.31,80.64c-0.11,0.09-0.19,0.27-0.19,0.42c0,0.11,0,0.08,0,0.07V81.1l-0.02-0.11l-0.04-0.22l-0.07-0.43
				l-0.13-0.86l-0.23-1.73c-0.15-1.16-0.26-2.32-0.34-3.49c-0.09-1.16-0.08-2.4-0.07-3.53c0-1.15,0.02-2.28-0.02-3.41
				c-0.08-2.23-0.18-4.52-1.02-6.2c-0.93-1.87-2.24-3.78-3.37-5.76l0,0l0.42,0.25l-13.5-2.75l0.26,0.01l-14.75,2.25l0.39-0.19
				l-7.12,6.5l0,0l0.24-0.57c0.16,2.16,0.28,4.33,0.37,6.5l-0.02-0.17c0.26,1.3,0.48,2.56,0.63,3.85c0.17,1.29,0.26,2.59,0.31,3.86
				c0.14,2.56,0.22,5.13-0.04,7.7l0,0l-0.78-0.73C55.25,81.37,68.22,80.99,81.31,80.64z M82.45,81.62
				c-13.32,0.65-26.77,1.26-40.16,1.76l-0.68,0.03l-0.09-0.76l0,0c-0.46-2.53-0.58-5.05-0.65-7.59c-0.03-1.27-0.09-2.52-0.23-3.77
				c-0.14-1.24-0.27-2.51-0.46-3.72l-0.02-0.11V67.4c0-2.17,0.04-4.34,0.12-6.5l0.01-0.37l0.23-0.2l0,0l7.12-6.5l0.17-0.15
				l0.22-0.03l14.75-2.25l0.13-0.02l0.13,0.03l13.5,2.75l0.25,0.05l0.18,0.2l0,0c1.8,1.58,3.32,3.35,4.54,5.56
				c0.3,0.56,0.57,1.24,0.72,1.87c0.17,0.64,0.26,1.25,0.34,1.87c0.15,1.22,0.19,2.42,0.18,3.6c0.02,2.37-0.25,4.68-0.25,6.9
				c-0.01,1.13,0.01,2.27,0.03,3.42l0.05,1.72l0.03,0.86l0.01,0.43l0.01,0.21v0.11l0.01,0.15C82.63,81.27,82.55,81.49,82.45,81.62z"
				/>
		</g>
		<g>
			<path class="st0" d="M34.09,98.88c0,0,10.33,7.83,28.33,7.5s28.67-12,28.67-12s-4.17-3.33-6.5-6.83s-3-7.5-3-7.5h-19l-20.33,2.58
				c0,0-0.56,5.19-2.81,8.94S34.09,98.88,34.09,98.88z"/>
			<path class="st2" d="M34.83,98.8c0.02-0.13-0.03-0.3-0.12-0.39c-0.02-0.02-0.05-0.05-0.06-0.06l0.02,0.01l0.05,0.03l0.2,0.12
				l0.4,0.23c0.27,0.16,0.55,0.3,0.82,0.44c0.56,0.28,1.11,0.58,1.68,0.83c1.13,0.53,2.29,1.01,3.47,1.43
				c2.36,0.85,4.76,1.54,7.21,2.07c4.89,1.03,9.92,1.45,14.88,1.19c4.93-0.25,9.8-1.35,14.38-3.23c4.58-1.84,8.97-4.44,12.77-7.62
				l0,0l0.08,1.09c-1.17-0.96-2.26-1.96-3.31-3.02s-2.05-2.18-2.95-3.41c-0.9-1.24-1.62-2.6-2.2-4c-0.57-1.41-1.02-2.83-1.31-4.36
				l0.74,0.63h-19l0.09-0.01l-20.33,2.58l0,0l0.65-0.66c-0.16,1.61-0.46,3.14-0.89,4.68c-0.44,1.53-1.01,3.04-1.84,4.46
				c-0.82,1.37-1.7,2.66-2.64,3.9c-0.47,0.62-0.95,1.24-1.45,1.84l-0.76,0.89l-0.38,0.44l-0.19,0.22l-0.1,0.11l-0.05,0.06
				l-0.01,0.01c0.03-0.04,0.07-0.09,0.1-0.15C34.84,99.06,34.86,98.91,34.83,98.8z M33.34,98.95c-0.01-0.13,0.02-0.29,0.09-0.43
				c0.03-0.07,0.08-0.13,0.12-0.18l0.01-0.01l0.04-0.05l0.09-0.11l0.18-0.22l0.35-0.45l0.7-0.91c0.46-0.61,0.92-1.22,1.36-1.84
				c0.88-1.24,1.75-2.49,2.5-3.78c0.72-1.25,1.27-2.64,1.71-4.06c0.43-1.42,0.79-2.91,1.02-4.36l0.01-0.04
				c0.05-0.34,0.32-0.58,0.65-0.63l0,0L62.5,79.3c0.03,0,0.06-0.01,0.09-0.01h19c0.37,0,0.67,0.26,0.74,0.61v0.02
				c0.26,1.34,0.69,2.74,1.22,4.04c0.54,1.31,1.21,2.55,2.03,3.69c0.83,1.14,1.78,2.21,2.8,3.24c1.01,1.02,2.09,2,3.18,2.9
				c0.32,0.27,0.37,0.74,0.1,1.07v0.01l-0.02,0.02l0,0c-1.72,2.08-3.69,3.81-5.83,5.38c-2.12,1.57-4.44,2.89-6.85,4
				c-4.81,2.28-10.13,3.43-15.44,3.65c-5.29,0.22-10.56-0.4-15.66-1.73c-2.54-0.7-5.04-1.55-7.42-2.67
				c-1.19-0.55-2.36-1.15-3.5-1.81c-0.57-0.33-1.13-0.67-1.68-1.04c-0.27-0.19-0.55-0.37-0.81-0.57l-0.4-0.3l-0.2-0.16l-0.19-0.15
				C33.5,99.35,33.38,99.13,33.34,98.95z"/>
		</g>
		<g>
			<path class="st2" d="M41.47,102.28c0.18-0.59,0.53-0.95,0.91-1.26c0.39-0.3,0.77-0.62,1.16-0.93c0.76-0.64,1.53-1.28,2.25-1.97
				c1.48-1.36,2.81-2.91,4-4.58c0.11-0.16,0.33-0.19,0.48-0.08c0.14,0.1,0.19,0.29,0.11,0.44c-0.95,1.85-2.02,3.67-3.27,5.39
				c-0.64,0.85-1.31,1.68-2.07,2.44c-0.37,0.39-0.77,0.74-1.17,1.1c-0.4,0.35-0.87,0.63-1.51,0.66c-0.5,0.02-0.92-0.36-0.95-0.86
				c-0.01-0.11,0.01-0.21,0.04-0.31L41.47,102.28z"/>
		</g>
		<g>
			<path class="st2" d="M51,104.75c-0.29-1.25,0.44-1.66,0.87-2.33c0.46-0.63,0.93-1.27,1.35-1.94c0.89-1.32,1.66-2.74,2.56-4.2
				c0.09-0.15,0.29-0.2,0.45-0.11c0.1,0.06,0.16,0.17,0.16,0.29c-0.04,1.74-0.42,3.45-1.03,5.1c-0.32,0.82-0.69,1.63-1.14,2.39
				c-0.47,0.73-0.72,1.67-2.04,1.72c-0.56,0.02-1.05-0.36-1.17-0.89L51,104.75z"/>
		</g>
		<g>
			<path class="st2" d="M62.38,105.97c-0.51-0.49-0.52-0.79-0.4-1.06c0.09-0.28,0.18-0.56,0.26-0.84c0.14-0.56,0.32-1.13,0.44-1.71
				c0.28-1.15,0.47-2.34,0.73-3.61v-0.01c0.06-0.3,0.35-0.49,0.65-0.43c0.19,0.04,0.34,0.17,0.41,0.34c0.5,1.26,0.69,2.62,0.7,3.98
				c-0.02,0.68-0.05,1.37-0.18,2.04c-0.06,0.34-0.13,0.67-0.2,1.01c-0.06,0.34-0.25,0.65-0.96,0.76c-0.52,0.08-1.02-0.09-1.37-0.43
				L62.38,105.97z"/>
		</g>
		<g>
			<path class="st2" d="M75.46,103.62c-0.95,0.09-1.06-0.39-1.25-0.78c-0.19-0.4-0.37-0.8-0.53-1.21c-0.32-0.81-0.55-1.65-0.75-2.48
				c-0.36-1.67-0.52-3.36-0.41-5.04c0.01-0.23,0.21-0.41,0.44-0.39c0.16,0.01,0.3,0.12,0.36,0.26c0.66,1.52,1.22,3.02,1.86,4.45
				c0.31,0.72,0.65,1.41,1,2.08c0.17,0.34,0.36,0.66,0.55,0.98c0.19,0.33,0.5,0.54-0.02,1.33l-0.06,0.08
				C76.38,103.31,75.93,103.57,75.46,103.62z"/>
		</g>
		<g>
			<path class="st2" d="M85.06,99.79c-1.8-0.93-3.35-2.2-4.65-3.61c-1.3-1.41-2.38-2.97-3.33-4.57c-0.12-0.2-0.05-0.45,0.15-0.57
				c0.18-0.11,0.4-0.06,0.53,0.09c2.34,2.76,5.16,5.17,8.35,6.16c0.72,0.22,1.12,0.99,0.9,1.71s-0.99,1.12-1.71,0.9
				c-0.08-0.02-0.15-0.05-0.22-0.09L85.06,99.79z"/>
		</g>
		<path class="st3" d="M81.19,64.03c0,0-2.4,8.09-7.38,8.47c-6.02,0.46-9.07-4.93-11.84-4.74s-4.02,6.4-8.41,6.99
			c-9.18,1.24-11.96-6.42-11.96-6.42C60.16,67.38,81.19,64.03,81.19,64.03z"/>
		<path class="st4" d="M47.98,66.83"/>
		<line class="st5" x1="60.15" y1="87.08" x2="66.73" y2="86.67"/>
		<g>
			<path class="st2" d="M62.7,70.82c0.56,0.49,1.08,0.99,1.58,1.55c0.25,0.28,0.49,0.57,0.71,0.91c0.21,0.35,0.45,0.7,0.49,1.29
				c0.02,0.31-0.08,0.66-0.2,0.89c-0.13,0.24-0.27,0.43-0.41,0.61c-0.29,0.35-0.59,0.62-0.91,0.86c-0.66,0.45-1.34,0.76-2.13,0.84
				c-0.42,0.05-0.81-0.26-0.85-0.69c-0.03-0.26,0.08-0.51,0.27-0.67l0.05-0.04c0.52-0.44,1.13-0.74,1.69-1.03
				c0.28-0.14,0.57-0.27,0.79-0.41c0.24-0.14,0.36-0.3,0.37-0.33c0.03-0.13-0.07-0.43-0.2-0.7c-0.14-0.28-0.32-0.56-0.52-0.82
				c-0.4-0.54-0.88-1.06-1.37-1.51l-0.01-0.01c-0.2-0.18-0.21-0.49-0.03-0.69C62.2,70.66,62.5,70.65,62.7,70.82z"/>
		</g>
		<g>
			<path class="st0" d="M36.13,78.56c0,0,2.75,4,11.5,2.56s7-3.19,9.69-3.44s2.56,1.44,5.31,1.31s2.94-2,5.44-2.19
				c2.56-0.19,7,3.81,12.06,2.25s8.44-5.31,8.44-5.31s-2.44,6.44-8.5,7.81c-5.91,1.34-13.88,0-17.19,0.19s-9.06,2.88-16,2.38
				S37.94,81.06,36.13,78.56z"/>
			<path class="st2" d="M36.56,79.18c0.1-0.06,0.28-0.21,0.33-0.48c0.05-0.27-0.06-0.47-0.13-0.55l0.03,0.03l0.05,0.06l0.12,0.13
				c0.09,0.09,0.18,0.18,0.28,0.26c0.19,0.17,0.41,0.33,0.63,0.48c0.45,0.28,0.92,0.55,1.44,0.74c1.01,0.41,2.12,0.64,3.23,0.75
				c2.25,0.21,4.54-0.09,6.82-0.57c1.14-0.23,2.26-0.52,3.31-0.9c0.53-0.19,1.02-0.42,1.48-0.69c0.47-0.27,0.82-0.62,1.47-1.02
				c0.67-0.4,1.42-0.49,2.06-0.51c0.67-0.03,1.43,0.1,2.07,0.42c0.63,0.32,1.05,0.62,1.5,0.76c0.44,0.14,0.95,0.18,1.47,0.14
				c1.07-0.04,1.77-0.51,2.82-1.29c0.53-0.37,1.21-0.69,1.9-0.81c0.34-0.06,0.68-0.09,1.07-0.07c0.36,0.03,0.71,0.09,1.02,0.18
				c1.26,0.35,2.31,0.87,3.4,1.3c1.08,0.43,2.15,0.79,3.24,0.98c1.09,0.19,2.18,0.19,3.23-0.05c1.04-0.24,2.14-0.69,3.14-1.19
				c2.02-1.02,3.93-2.42,5.48-4.02l0.01-0.01c0.28-0.31,0.75-0.33,1.06-0.06c0.24,0.21,0.3,0.54,0.2,0.82
				c-0.47,1.25-1.08,2.33-1.82,3.38c-0.73,1.04-1.6,2.01-2.61,2.84c-1.01,0.82-2.17,1.49-3.41,1.95c-1.29,0.44-2.51,0.63-3.76,0.8
				c-2.49,0.31-4.97,0.27-7.42,0.17c-2.42-0.09-4.91-0.35-7.15-0.3c-1.04,0.04-2.19,0.32-3.35,0.6s-2.35,0.59-3.55,0.86
				c-2.4,0.53-4.9,0.94-7.42,0.9c-1.26,0-2.52-0.11-3.76-0.3c-1.25-0.19-2.5-0.47-3.71-0.94c-1.21-0.48-2.37-1.16-3.36-2.03
				c-0.48-0.44-0.93-0.92-1.33-1.42c-0.19-0.25-0.39-0.5-0.57-0.76l-0.14-0.19l-0.06-0.08c0.01,0.01,0.03,0.02,0.07,0.04
				c0.07,0.03,0.23,0.05,0.37-0.03C36.45,79.43,36.53,79.29,36.56,79.18z M35.7,77.95c0.12,0,0.29-0.01,0.53,0.04
				c0.23,0.04,0.48,0.18,0.64,0.34c0.08,0.08,0.15,0.15,0.2,0.22l0.08,0.1l0.14,0.17c0.18,0.23,0.37,0.44,0.56,0.66
				c0.38,0.43,0.78,0.81,1.21,1.17c0.86,0.69,1.84,1.21,2.9,1.57c2.12,0.72,4.51,0.96,6.81,0.92c2.32-0.05,4.64-0.4,6.95-0.95
				c1.16-0.27,2.31-0.58,3.5-0.88c1.19-0.29,2.4-0.63,3.79-0.69c2.6-0.03,4.94,0.26,7.35,0.37c2.39,0.13,4.77,0.15,7.09-0.05
				c1.15-0.12,2.33-0.29,3.35-0.61c1.03-0.35,2.01-0.88,2.9-1.55c1.78-1.33,3.22-3.28,4.17-5.29l1.26,0.77l-0.02,0.02
				c-1.74,1.8-3.71,3.23-5.91,4.35c-1.11,0.55-2.22,1.01-3.48,1.31c-1.26,0.29-2.58,0.29-3.82,0.07c-2.49-0.4-4.7-1.68-6.77-2.3
				c-0.98-0.3-1.9-0.09-2.76,0.49c-0.44,0.3-0.94,0.71-1.57,1.02c-0.62,0.31-1.33,0.48-1.99,0.52c-0.66,0.04-1.35,0.01-2.04-0.22
				c-0.69-0.23-1.24-0.63-1.67-0.83c-0.43-0.21-0.86-0.29-1.38-0.27c-0.53,0.02-1,0.09-1.35,0.31c-0.36,0.21-0.89,0.68-1.44,1.01
				c-0.56,0.34-1.14,0.6-1.73,0.82c-1.17,0.43-2.35,0.73-3.53,0.96c-2.33,0.49-4.8,0.83-7.27,0.59c-1.23-0.12-2.47-0.37-3.65-0.85
				c-0.6-0.22-1.16-0.54-1.71-0.89c-0.27-0.19-0.53-0.38-0.78-0.6c-0.13-0.11-0.25-0.23-0.37-0.35l-0.18-0.19l-0.09-0.11l-0.04-0.05
				c-0.08-0.1-0.2-0.31-0.16-0.59C35.44,78.19,35.61,78.02,35.7,77.95z"/>
		</g>
		<g>
			<path class="st0" d="M41,67.13c0,0,1.12-9,5.75-9.75s13.88,6,13.88,6l-1.25-5.5c0,0,3.75,2.12,5.75,3.25s5,1.38,5,1.38
				s-0.75-4.12-1.25-5s-2.25-2.12-2.25-2.12s4.62,3.12,10.75,1.62s8.5-4.62,8.5-4.62s-7-1.75-8.75-2.88s-4.5-1.62-4.62-4.38
				s1.5-5.75,1.5-5.75s-4.5,4.62-12.5,6.5s-17.95,2.42-20.88,5.88C37.88,55,38.89,60.59,41,67.13z"/>
			<path class="st2" d="M40.93,66.38c-0.12-0.01-0.32,0.03-0.46,0.17c-0.15,0.12-0.21,0.34-0.21,0.37v-0.11l0.01-0.23l0.03-0.45
				c0.03-0.29,0.05-0.59,0.1-0.88c0.08-0.59,0.18-1.17,0.32-1.76c0.27-1.16,0.64-2.33,1.21-3.45c0.56-1.12,1.32-2.24,2.53-3.08
				c0.32-0.19,0.65-0.36,0.98-0.52c0.36-0.11,0.73-0.21,1.1-0.31c0.36-0.03,0.71-0.05,1.07-0.07c0.34,0.01,0.67,0.06,1,0.09
				c2.57,0.42,4.69,1.5,6.73,2.64c2.03,1.17,3.92,2.49,5.73,3.97l-1.17,0.77l-1.25-5.5c-0.09-0.4,0.16-0.81,0.57-0.9
				c0.19-0.04,0.38-0.01,0.54,0.08l0,0c1.75,0.9,3.48,1.86,5.18,2.84l0.64,0.36c0.19,0.1,0.38,0.2,0.59,0.29
				c0.41,0.18,0.84,0.33,1.29,0.46c0.89,0.25,1.84,0.45,2.75,0.57l-0.8,0.88l0,0c-0.25-1.33-0.52-2.69-0.88-3.96
				c-0.08-0.3-0.2-0.65-0.29-0.8c-0.11-0.18-0.32-0.42-0.54-0.64c-0.45-0.44-0.98-0.87-1.5-1.25l0,0c-0.33-0.24-0.4-0.7-0.17-1.03
				c0.2-0.27,0.54-0.37,0.84-0.27l0.18,0.06c1.5,0.52,3.13,0.94,4.69,1.14c1.58,0.2,3.17,0.23,4.72-0.08
				c1.57-0.29,3.2-0.76,4.69-1.41c1.49-0.62,2.98-1.49,4.12-2.49l0,0l0.42,1.18c-1.79-0.46-3.56-0.95-5.33-1.51
				c-0.88-0.28-1.76-0.58-2.65-0.96c-0.23-0.11-0.44-0.19-0.68-0.33l-0.34-0.19l-0.26-0.16c-0.37-0.21-0.77-0.4-1.18-0.6
				c-0.82-0.41-1.74-0.86-2.5-1.68c-0.37-0.41-0.66-0.93-0.83-1.47c-0.17-0.55-0.18-1.1-0.18-1.59c0.09-2.02,0.72-3.83,1.59-5.57
				l0.01-0.02l1.2,0.88c-1.64,1.65-3.46,2.91-5.42,4.03c-1.96,1.09-4.03,2-6.19,2.61c-4.32,1.18-8.63,1.79-12.84,2.67
				c-2.09,0.44-4.2,0.9-6.05,1.69c-0.93,0.38-1.78,0.87-2.34,1.46c-0.59,0.61-1.01,1.43-1.25,2.32c-0.48,1.81-0.29,3.89,0.06,5.94
				c0.16,1.03,0.37,2.07,0.59,3.11l0.32,1.58c0.02,0.12,0.06,0.3,0.07,0.36c-0.01,0.04-0.04,0.06-0.11,0.1
				C41.24,65.81,40.99,66.06,40.93,66.38z M41.07,67.87c-0.22-0.2-0.63-0.47-0.94-0.94c-0.15-0.22-0.26-0.46-0.35-0.68l-0.17-0.42
				c-0.21-0.51-0.4-1.03-0.58-1.56c-0.35-1.05-0.66-2.13-0.88-3.24s-0.38-2.25-0.4-3.42c-0.03-1.17,0.06-2.38,0.39-3.58
				c0.33-1.2,0.92-2.38,1.85-3.33c0.96-0.97,2.06-1.54,3.14-1.98c2.17-0.9,4.35-1.34,6.51-1.78c4.31-0.83,8.65-1.32,12.75-2.35
				c4.03-1.06,7.97-3.03,11.07-5.75l0.04-0.04c0.31-0.27,0.78-0.24,1.06,0.07c0.21,0.24,0.24,0.58,0.1,0.85v0.01
				c-0.76,1.52-1.35,3.26-1.41,4.9c-0.03,0.84,0.14,1.48,0.62,2.02c0.48,0.54,1.23,0.94,2.04,1.34c0.41,0.2,0.83,0.4,1.26,0.65
				l0.32,0.2l0.26,0.14c0.16,0.09,0.37,0.18,0.56,0.27c0.8,0.34,1.65,0.63,2.51,0.91c1.72,0.54,3.48,1.03,5.24,1.48
				c0.4,0.1,0.65,0.51,0.54,0.91c-0.02,0.08-0.06,0.16-0.1,0.23l-0.02,0.04l-0.01,0.01c-1.16,1.65-2.65,2.74-4.28,3.66
				c-1.64,0.91-3.36,1.53-5.21,1.95c-0.93,0.21-1.89,0.28-2.85,0.32c-0.96-0.03-1.92-0.07-2.84-0.3c-1.87-0.42-3.6-1.17-5.08-2.47
				l0.86-1.23l0,0c0.59,0.44,1.14,0.87,1.68,1.4c0.27,0.27,0.53,0.54,0.78,0.95c0.24,0.46,0.31,0.78,0.43,1.13
				c0.39,1.39,0.65,2.73,0.92,4.11l0,0c0.08,0.4-0.17,0.79-0.57,0.87c-0.07,0.01-0.14,0.02-0.2,0.01h-0.03
				c-1.05-0.08-2.05-0.24-3.06-0.52c-0.5-0.14-1-0.3-1.5-0.51c-0.25-0.1-0.49-0.22-0.74-0.35l-0.65-0.36
				c-1.72-0.96-3.43-1.94-5.11-2.98l0,0l1.1-0.82l1.25,5.5c0.09,0.4-0.16,0.8-0.56,0.9c-0.2,0.04-0.39,0.01-0.55-0.09l-0.06-0.04
				c-1.91-1.15-3.89-2.27-5.88-3.23c-1.98-0.96-4.07-1.85-6.02-2.12c-0.23-0.01-0.48-0.05-0.7-0.06l-0.63,0.04
				c-0.18,0.06-0.36,0.11-0.55,0.16c-0.17,0.1-0.34,0.2-0.52,0.29c-0.7,0.45-1.29,1.25-1.81,2.13c-0.51,0.89-0.94,1.87-1.32,2.89
				c-0.19,0.51-0.37,1.03-0.53,1.55l-0.25,0.79l-0.12,0.4L41.81,67l-0.03,0.1c-0.01,0.07-0.07,0.32-0.22,0.47
				C41.4,67.77,41.2,67.85,41.07,67.87z"/>
		</g>
		<g>
			<path class="st2" d="M70.57,52.26c1.2,0.4,2.38,0.72,3.57,0.85c1.19,0.12,2.38,0.1,3.58-0.04s2.4-0.37,3.63-0.61
				c1.23-0.23,2.47-0.49,3.73-0.65c0.41-0.05,0.79,0.24,0.84,0.65c0.05,0.36-0.17,0.69-0.49,0.81c-1.2,0.43-2.43,0.77-3.68,1.07
				c-1.26,0.3-2.55,0.52-3.89,0.58c-1.33,0.06-2.71-0.03-4.01-0.4c-1.3-0.35-2.52-0.94-3.58-1.71c-0.14-0.1-0.18-0.3-0.07-0.44
				C70.29,52.26,70.44,52.22,70.57,52.26z"/>
		</g>
	</g>
</g>
<g id="Layer_88">
</g>
</svg>
